<?xml version="1.0" encoding="utf-8"?>
<!-- Generator: Adobe Illustrator 15.1.0, SVG Export Plug-In . SVG Version: 6.00 Build 0)  -->
<!DOCTYPE svg PUBLIC "-//W3C//DTD SVG 1.1//EN" "http://www.w3.org/Graphics/SVG/1.1/DTD/svg11.dtd">
<svg version="1.1" id="Layer_1" xmlns="http://www.w3.org/2000/svg" xmlns:xlink="http://www.w3.org/1999/xlink" x="0px" y="0px"
	 width="30px" height="30px" viewBox="0 0 30 30" enable-background="new 0 0 30 30" xml:space="preserve">
<g>
	<path fill="#FFFFFF" stroke="#406FC4" stroke-width="2" stroke-miterlimit="10" d="M-4.7,12.1C-5.8,3.7-11.9-2.3-14.8-2.3l0,0l0,0
		l0,0l0,0c-2.9,0-9,6-10.1,14.4c-1,7.9,4.5,13,10.1,13l0,0l0,0l0,0l0,0C-9.2,25.1-3.7,20-4.7,12.1z"/>
	<g>
		<polyline fill="#FFFFFF" points="-6.9,5.5 -8.2,11.9 -11.3,6.3 -12.4,10.6 -15.6,8.1 -19.3,12.4 -20.4,9 		"/>
		<polygon fill="#406FC4" points="-6,5.7 -7.4,12.1 -7.9,14.2 -8.8,12.3 -11.9,6.6 -10.8,6.5 -11.9,10.7 -12.1,11.4 -12.6,11 
			-15.8,8.4 -15.4,8.3 -19.2,12.5 -19.4,12.6 -19.4,12.4 -20.4,9 -19.2,12.4 -19.4,12.3 -15.8,7.9 -15.6,7.7 -15.4,7.9 -12.1,10.3 
			-12.8,10.5 -11.9,6.2 -11.6,4.8 -10.8,6 -7.5,11.5 -8.9,11.8 -7.9,5.4 		"/>
	</g>
</g>
<g>
	<path fill="#FFFFFF" stroke="#406FC4" stroke-width="2" stroke-miterlimit="10" d="M5.642,10.055L7.33,25.391
		c0,1.4,1.136,2.533,2.533,2.533h10.273c1.396,0,2.531-1.133,2.531-2.533l1.688-15.336H5.642z"/>
	
		<line fill="none" stroke="#406FC4" stroke-width="2" stroke-linecap="round" stroke-miterlimit="10" x1="12.044" y1="14.137" x2="12.044" y2="23.686"/>
	<path fill="#FFFFFF" stroke="#406FC4" stroke-width="2" stroke-miterlimit="10" d="M21.305,4.158c0-1.15-0.932-2.082-2.082-2.082
		h-8.446c-1.15,0-2.082,0.932-2.082,2.082v2.661h12.61V4.158z"/>
	<path fill="#FFFFFF" stroke="#406FC4" stroke-width="2" stroke-miterlimit="10" d="M27.664,8.438c0,0.893-0.725,1.617-1.619,1.617
		H3.953c-0.893,0-1.617-0.725-1.617-1.617l0,0c0-0.894,0.725-1.618,1.617-1.618h22.092C26.939,6.819,27.664,7.544,27.664,8.438
		L27.664,8.438z"/>
	
		<line fill="none" stroke="#406FC4" stroke-width="2" stroke-linecap="round" stroke-miterlimit="10" x1="18.096" y1="14.137" x2="18.096" y2="23.686"/>
</g>
</svg>
