<?xml version="1.0" encoding="utf-8"?>
<!-- Generator: Adobe Illustrator 15.1.0, SVG Export Plug-In . SVG Version: 6.00 Build 0)  -->
<!DOCTYPE svg PUBLIC "-//W3C//DTD SVG 1.1//EN" "http://www.w3.org/Graphics/SVG/1.1/DTD/svg11.dtd">
<svg version="1.1" id="Layer_1" xmlns="http://www.w3.org/2000/svg" xmlns:xlink="http://www.w3.org/1999/xlink" x="0px" y="0px"
	 width="30px" height="30px" viewBox="0 0 30 30" style="enable-background:new 0 0 30 30;" xml:space="preserve">
<style type="text/css">
<![CDATA[
	.st0{fill:#FFFFFF;stroke:#406FC4;stroke-width:2;stroke-miterlimit:10;}
	.st1{fill:#FFFFFF;}
	.st2{fill:#406FC4;}
]]>
</style>
<g>
	<path class="st0" d="M25.1,15.7C24,7.3,17.9,1.3,15,1.3l0,0l0,0l0,0l0,0c-2.9,0-9,6-10.1,14.4c-1,7.9,4.5,13,10.1,13l0,0l0,0l0,0
		l0,0C20.6,28.7,26.1,23.6,25.1,15.7z"/>
	<g>
		<polyline class="st1" points="22.9,9.1 21.6,15.5 18.5,9.9 17.4,14.2 14.2,11.7 10.5,16 9.4,12.6 		"/>
		<polygon class="st2" points="23.8,9.3 22.4,15.7 21.9,17.8 21,15.9 17.9,10.2 19,10.1 17.9,14.3 17.7,15 17.2,14.6 14,12 
			14.4,11.9 10.6,16.1 10.4,16.2 10.4,16 9.4,12.6 10.6,16 10.4,15.9 14,11.5 14.2,11.3 14.4,11.5 17.7,13.9 17,14.1 17.9,9.8 
			18.2,8.4 19,9.6 22.3,15.1 20.9,15.4 21.9,9 		"/>
	</g>
</g>
</svg>
