<?xml version="1.0" encoding="utf-8"?>
<!-- Generator: Adobe Illustrator 15.1.0, SVG Export Plug-In . SVG Version: 6.00 Build 0)  -->
<!DOCTYPE svg PUBLIC "-//W3C//DTD SVG 1.1//EN" "http://www.w3.org/Graphics/SVG/1.1/DTD/svg11.dtd">
<svg version="1.1" id="Layer_1" xmlns="http://www.w3.org/2000/svg" xmlns:xlink="http://www.w3.org/1999/xlink" x="0px" y="0px"
	 width="50px" height="50px" viewBox="0 0 50 50" style="enable-background:new 0 0 50 50;" xml:space="preserve">
<style type="text/css">
<![CDATA[
	.st0{fill:#FFFFFF;}
	.st1{fill:none;}
]]>
</style>
<g>
	<path class="st0" d="M17.3,26.9h-2.4c0-2.9-2.4-5.3-5.3-5.3v-2.4C13.8,19.2,17.3,22.6,17.3,26.9z"/>
	<path class="st1" d="M39.3,17.9c-0.2,0-0.4,0-0.5,0.1c-4.2,0.3-7.6,3.8-7.6,8.1c0,0.7,0.1,1.3,0.3,1.9c0.9,3.6,4.1,6.3,7.9,6.3
		c4.5,0,8.2-3.7,8.2-8.2C47.5,21.6,43.8,17.9,39.3,17.9z"/>
	<path class="st0" d="M39.3,15.5c-1.5,0-3,0.3-4.3,0.9c-2-0.5-4.1-0.8-6-0.9c-0.8-1.3-2.3-2.2-4-2.2c-1.8,0-3.3,0.9-4.1,2.2
		c-2,0.2-4,0.5-5.7,0.9c-1.4-0.7-2.9-1-4.5-1c-5.9,0-10.6,4.8-10.6,10.6c0,5.8,4.8,10.6,10.6,10.6c5.2,0,9.5-3.8,10.4-8.7h0
		c0,0,1.9-3.5,3.9-3.5c1.9,0,3.9,3.3,3.9,3.4c0.9,4.9,5.2,8.7,10.4,8.7c5.8,0,10.6-4.8,10.6-10.6C49.9,20.2,45.2,15.5,39.3,15.5z
		 M10.7,34.2c-4.5,0-8.2-3.7-8.2-8.2c0-4.5,3.7-8.2,8.2-8.2c0.3,0,0.5,0.1,0.8,0.1c4.1,0.4,7.4,3.8,7.4,8.1c0,0.7-0.1,1.3-0.3,1.9
		C17.7,31.6,14.5,34.2,10.7,34.2z M39.3,34.2c-3.8,0-7-2.7-7.9-6.3c-0.2-0.6-0.3-1.3-0.3-1.9c0-4.3,3.4-7.8,7.6-8.1
		c0.2,0,0.4-0.1,0.5-0.1c4.5,0,8.2,3.7,8.2,8.2C47.5,30.6,43.8,34.2,39.3,34.2z"/>
	<path class="st0" d="M45.9,26.9h-2.4c0-2.9-2.4-5.3-5.3-5.3v-2.4C42.5,19.2,45.9,22.6,45.9,26.9z"/>
</g>
</svg>
