<?xml version="1.0" encoding="UTF-8" standalone="no"?>
<!-- Generator: Adobe Illustrator 15.1.0, SVG Export Plug-In . SVG Version: 6.00 Build 0)  -->

<svg
   xmlns:dc="http://purl.org/dc/elements/1.1/"
   xmlns:cc="http://creativecommons.org/ns#"
   xmlns:rdf="http://www.w3.org/1999/02/22-rdf-syntax-ns#"
   xmlns:svg="http://www.w3.org/2000/svg"
   xmlns="http://www.w3.org/2000/svg"
   xmlns:sodipodi="http://sodipodi.sourceforge.net/DTD/sodipodi-0.dtd"
   xmlns:inkscape="http://www.inkscape.org/namespaces/inkscape"
   version="1.1"
   id="Layer_1"
   x="0px"
   y="0px"
   width="50px"
   height="50px"
   viewBox="0 0 50 50"
   enable-background="new 0 0 50 50"
   xml:space="preserve"
   inkscape:version="0.91 r13725"
   sodipodi:docname="friendship.svg"><metadata
     id="metadata4198"><rdf:RDF><cc:Work
         rdf:about=""><dc:format>image/svg+xml</dc:format><dc:type
           rdf:resource="http://purl.org/dc/dcmitype/StillImage" /></cc:Work></rdf:RDF></metadata><defs
     id="defs4196" /><sodipodi:namedview
     pagecolor="#ffffff"
     bordercolor="#666666"
     borderopacity="1"
     objecttolerance="10"
     gridtolerance="10"
     guidetolerance="10"
     inkscape:pageopacity="0"
     inkscape:pageshadow="2"
     inkscape:window-width="1301"
     inkscape:window-height="744"
     id="namedview4194"
     showgrid="false"
     inkscape:zoom="12.18"
     inkscape:cx="25"
     inkscape:cy="25"
     inkscape:window-x="65"
     inkscape:window-y="24"
     inkscape:window-maximized="1"
     inkscape:current-layer="Layer_1" /><path
     fill="#406FC0"
     stroke="#FFFFFF"
     stroke-width="0.75"
     stroke-miterlimit="10"
     d="M25,3.6c11.8,0,21.4,9.6,21.4,21.4  c0,11.801-9.602,21.4-21.4,21.4S3.6,36.801,3.6,25C3.6,13.2,13.2,3.6,25,3.6 M25,0.3C11.4,0.3,0.3,11.4,0.3,25  c0,13.6,11.1,24.7,24.7,24.7C38.6,49.7,49.7,38.6,49.7,25C49.7,11.4,38.6,0.3,25,0.3L25,0.3z"
     id="path4186"
     style="stroke-width:0;stroke-miterlimit:10;stroke-dasharray:none" /><circle
     fill="#406FC0"
     cx="16.3"
     cy="19.6"
     r="4.1"
     id="circle4188" /><circle
     fill="#406FC0"
     cx="33.6"
     cy="19.6"
     r="4.1"
     id="circle4190" /><path
     fill="none"
     stroke="#406FC0"
     stroke-width="2"
     stroke-miterlimit="10"
     d="M13.7,29.084C16.5,35.057,20.6,38.4,25,38.4  c4.4,0,8.5-3.346,11.3-9.316H13.7z"
     id="path4192"
     style="stroke-width:2.5;stroke-miterlimit:10;stroke-dasharray:none" /></svg>