<?xml version="1.0" encoding="utf-8"?>
<!-- Generator: Adobe Illustrator 15.1.0, SVG Export Plug-In . SVG Version: 6.00 Build 0)  -->
<!DOCTYPE svg PUBLIC "-//W3C//DTD SVG 1.1//EN" "http://www.w3.org/Graphics/SVG/1.1/DTD/svg11.dtd">
<svg version="1.1" id="Layer_1" xmlns="http://www.w3.org/2000/svg" xmlns:xlink="http://www.w3.org/1999/xlink" x="0px" y="0px"
	 width="30px" height="30px" viewBox="0 0 30 30" enable-background="new 0 0 30 30" xml:space="preserve">
<polygon fill="none" stroke="#406FC4" stroke-width="2" stroke-linejoin="round" stroke-miterlimit="10" points="43.704,17.25 
	36.783,5.263 43.704,-6.726 57.546,-6.726 64.467,5.263 57.546,17.25 "/>
<circle fill="none" stroke="#406FC4" stroke-width="2" stroke-miterlimit="10" cx="50.626" cy="5.262" r="4.492"/>
<g>
	<path fill="none" stroke="#406FC4" stroke-width="2" stroke-linecap="round" stroke-linejoin="round" stroke-miterlimit="10" d="
		M-7.686,25.006c0,1.566-1.154-3.55-2.579-3.55h-20.637c-1.426,0-2.579-1.271-2.579-2.839V5.369c0-1.568,1.153-2.839,2.579-2.839
		h20.637c1.425,0,2.579,1.271,2.579,2.839V19.8V25.006z"/>
	
		<line fill="none" stroke="#406FC4" stroke-width="2" stroke-linecap="round" stroke-linejoin="round" stroke-miterlimit="10" x1="-27.799" y1="8.667" x2="-13.367" y2="8.667"/>
	
		<line fill="none" stroke="#406FC4" stroke-width="2" stroke-linecap="round" stroke-linejoin="round" stroke-miterlimit="10" x1="-27.799" y1="15.061" x2="-13.367" y2="15.061"/>
</g>
<polygon fill="#5F9CDD" points="23.614,5.195 27.924,5.195 27.019,4.602 27.924,4.039 24.428,4.039 23.133,4.655 "/>
<polygon fill="none" points="24.56,1.53 21.742,1.53 23.15,2.297 "/>
<path fill="#A0AFBC" d="M29.061,17.25c0-0.039-0.006-0.077-0.006-0.116c-0.002,0.139-0.006,0.276-0.009,0.412
	C29.048,17.446,29.061,17.35,29.061,17.25z"/>
<path fill="#A0AFBC" d="M28.99,18.645c-0.005,0.058-0.01,0.114-0.015,0.172C28.981,18.759,28.984,18.701,28.99,18.645z"/>
<path fill="#5F9CDD" d="M28.591,20.882c0.204-0.678,0.32-1.358,0.385-2.065C28.9,19.522,28.762,20.209,28.591,20.882z"/>
<path fill="#5F9CDD" d="M29.046,17.546c-0.008,0.369-0.021,0.736-0.056,1.099C29.019,18.287,29.036,17.922,29.046,17.546z"/>
<polygon fill="none" points="24.56,1.53 21.742,1.53 23.15,2.297 "/>
<path fill="#5F9CDD" d="M27.729,11.203c0.12,0.681,0.194,1.378,0.194,2.094c0,4.229-2.19,7.938-5.493,10.078
	c-4.199,3.554-10.49,3.395-14.502-0.528c-1.077-1.054-1.884-2.277-2.425-3.587C3.904,15.391,4.647,10.773,7.76,7.59
	c2.762-2.823,6.549-3.552,10.134-3.294l5.313,3.272l0.927-0.841l-1.198-1.411l-0.73-0.859l1.229-0.516l4.519-1.898V0.607
	c0,0-10.176-0.331-13.561,0L13.15,0.808c-2.963,0.477-5.806,1.855-8.065,4.165C4.062,6.018,3.234,7.18,2.59,8.413
	c-2.889,5.532-1.972,12.52,2.72,17.108c5.656,5.533,14.669,5.503,20.302,0.004c1.678-1.72,2.536-3.178,2.979-4.644
	c0.171-0.673,0.31-1.359,0.385-2.065c0.005-0.058,0.01-0.114,0.015-0.172c0.034-0.362,0.048-0.729,0.056-1.099
	c0.003-0.136,0.007-0.273,0.009-0.412C29.038,15.016,28.552,13.018,27.729,11.203z M24.56,1.53L23.15,2.297L21.742,1.53H24.56z"/>
</svg>
