<?xml version="1.0" encoding="utf-8"?>
<!-- Generator: Adobe Illustrator 15.1.0, SVG Export Plug-In . SVG Version: 6.00 Build 0)  -->
<!DOCTYPE svg PUBLIC "-//W3C//DTD SVG 1.1//EN" "http://www.w3.org/Graphics/SVG/1.1/DTD/svg11.dtd">
<svg version="1.1" id="Layer_1" xmlns="http://www.w3.org/2000/svg" xmlns:xlink="http://www.w3.org/1999/xlink" x="0px" y="0px"
	 width="500px" height="500px" viewBox="0 0 500 500" style="enable-background:new 0 0 500 500;" xml:space="preserve">
<style type="text/css">
<![CDATA[
	.st0{fill:#FFFFFF;}
	.st1{fill:#406FC4;}
]]>
</style>
<polygon class="st0" points="205,11 494,11 494,40.6 373.8,90.3 414.2,137 394.8,154.3 "/>
<polygon class="st1" points="366.8,30.2 422.8,30.2 394.8,40.6 "/>
<polygon class="st0" points="403.3,104.9 495,104.9 483.8,92.7 495,81.1 421.9,81.1 394.8,93.8 "/>
<polygon class="st0" points="133.5,134.9 404.9,345 344.9,422.5 "/>
<polygon class="st0" points="385.4,488.3 98.9,112.7 5,181.7 "/>
<polygon class="st0" points="303.4,437.3 59.4,489 372.4,489 "/>
<polygon class="st0" points="191.7,166.9 245.3,52.7 217.9,30.2 133.6,123.6 "/>
</svg>
