<?xml version="1.0" encoding="utf-8"?>
<!-- Generator: Adobe Illustrator 15.1.0, SVG Export Plug-In . SVG Version: 6.00 Build 0)  -->
<!DOCTYPE svg PUBLIC "-//W3C//DTD SVG 1.1//EN" "http://www.w3.org/Graphics/SVG/1.1/DTD/svg11.dtd">
<svg version="1.1" id="Layer_1" xmlns="http://www.w3.org/2000/svg" xmlns:xlink="http://www.w3.org/1999/xlink" x="0px" y="0px"
	 width="50px" height="50px" viewBox="0 0 50 50" style="enable-background:new 0 0 50 50;" xml:space="preserve">
<style type="text/css">
<![CDATA[
	.st0{fill:#FFFFFF;}
]]>
</style>
<g>
	<path class="st0" d="M25,3.6c11.8,0,21.4,9.6,21.4,21.4c0,11.8-9.6,21.4-21.4,21.4C13.2,46.4,3.6,36.8,3.6,25
		C3.6,13.2,13.2,3.6,25,3.6 M25,0.3C11.4,0.3,0.3,11.4,0.3,25c0,13.6,11.1,24.7,24.7,24.7c13.6,0,24.7-11.1,24.7-24.7
		C49.7,11.4,38.6,0.3,25,0.3L25,0.3z"/>
	<circle class="st0" cx="16.3" cy="19.6" r="4.1"/>
	<circle class="st0" cx="33.6" cy="19.6" r="4.1"/>
	<path class="st0" d="M12.3,28.2l1.4,2.4c2.8,5,6.9,7.8,11.3,7.8c4.4,0,8.5-2.8,11.3-7.8l1.4-2.4H12.3z"/>
</g>
</svg>
