<?xml version="1.0" encoding="utf-8"?>
<!-- Generator: Adobe Illustrator 15.1.0, SVG Export Plug-In . SVG Version: 6.00 Build 0)  -->
<!DOCTYPE svg PUBLIC "-//W3C//DTD SVG 1.1//EN" "http://www.w3.org/Graphics/SVG/1.1/DTD/svg11.dtd">
<svg version="1.1" id="Layer_1" xmlns="http://www.w3.org/2000/svg" xmlns:xlink="http://www.w3.org/1999/xlink" x="0px" y="0px"
	 width="50px" height="50px" viewBox="0 0 50 50" style="enable-background:new 0 0 50 50;" xml:space="preserve">
<style type="text/css">
<![CDATA[
	.st0{fill:#FFFFFF;}
]]>
</style>
<path class="st0" d="M29.1,4.2c-4.6-4.6-12.6-4.5-18.4-3l10.2,6.9c1.3,1.3,1.3,3.5,0,4.9L13,20.9c-1.3,1.3-3.5,1.3-4.9,0L1.2,10.7
	c-1.5,5.8-1.6,13.9,3,18.4c5.9,5.9,14.9,6.7,21.7,2.5l14.4,16.9c1.3,1.3,3.5,1.3,4.9,0l3.3-3.3c1.3-1.3,1.3-3.5,0-4.9L31.6,25.9
	C35.8,19.1,35,10.1,29.1,4.2z"/>
</svg>
