<?xml version="1.0" encoding="utf-8"?>
<!-- Generator: Adobe Illustrator 15.1.0, SVG Export Plug-In . SVG Version: 6.00 Build 0)  -->
<!DOCTYPE svg PUBLIC "-//W3C//DTD SVG 1.1//EN" "http://www.w3.org/Graphics/SVG/1.1/DTD/svg11.dtd">
<svg version="1.1" id="Layer_1" xmlns="http://www.w3.org/2000/svg" xmlns:xlink="http://www.w3.org/1999/xlink" x="0px" y="0px"
	 width="50px" height="50px" viewBox="0 0 50 50" style="enable-background:new 0 0 50 50;" xml:space="preserve">
<style type="text/css">
<![CDATA[
	.st0{fill:#FFFFFF;}
	.st1{fill:none;}
]]>
</style>
<path class="st1" d="M25,26.8c2.4,0,4.5-1.5,5.4-3.6H19.6C20.5,25.3,22.6,26.8,25,26.8z"/>
<path class="st0" d="M43.5,29.6c-2.2-2.6-2.1-14.8-2.1-14.8C41.4,6,35.2,0.7,25,0.7C14.8,0.7,8.6,6,8.6,14.8c0,0,0.2,12.3-2.1,14.8
	c-3,3.5-6.3,3.1-6.3,7.7c0,3.8,1.4,4.4,4.5,4.4c1.3,0,2.8-0.1,4.6-0.1h6c1,4.4,4.9,7.7,9.7,7.7c4.7,0,8.7-3.3,9.7-7.7h6
	c1.8,0,3.3,0.1,4.6,0.1c3,0,4.5-0.6,4.5-4.4C49.7,32.7,46.5,33.1,43.5,29.6z M25,45.1c-2.4,0-4.5-1.5-5.3-3.6h10.6
	C29.5,43.6,27.4,45.1,25,45.1z M45.6,37.5c-0.1,0-0.2,0-0.3,0c-0.5,0-1.1,0-1.7,0c-0.9,0-1.8-0.1-2.8-0.1h-6h-4.4H19.6h-4.4h-6
	c-1,0-2,0-2.8,0.1c-0.6,0-1.2,0-1.7,0c-0.1,0-0.2,0-0.3,0c0-0.1,0-0.1,0-0.2c0-0.5,0.1-0.7,0.1-0.7c0.1-0.2,0.7-0.6,1.2-0.9
	c1.1-0.7,2.6-1.7,4-3.4c2.7-3.1,3.2-11.3,3.1-17.6c0-8.6,7.6-9.9,12.2-9.9c4.6,0,12.2,1.3,12.2,9.8c-0.1,6.3,0.4,14.5,3.1,17.6
	c1.5,1.7,2.9,2.6,4,3.4c0.4,0.3,1.1,0.7,1.2,0.8c0,0,0.1,0.2,0.1,0.7C45.6,37.3,45.6,37.4,45.6,37.5z"/>
</svg>
