<?xml version="1.0" encoding="utf-8"?>
<!-- Generator: Adobe Illustrator 15.1.0, SVG Export Plug-In . SVG Version: 6.00 Build 0)  -->
<!DOCTYPE svg PUBLIC "-//W3C//DTD SVG 1.1//EN" "http://www.w3.org/Graphics/SVG/1.1/DTD/svg11.dtd">
<svg version="1.1" id="Layer_1" xmlns="http://www.w3.org/2000/svg" xmlns:xlink="http://www.w3.org/1999/xlink" x="0px" y="0px"
	 width="30px" height="30px" viewBox="0 0 30 30" enable-background="new 0 0 30 30" xml:space="preserve">
<g>
	<path fill="none" stroke="#FFFFFF" stroke-width="2" stroke-miterlimit="10" d="M25.1,15.7C24,7.3,17.9,1.3,15,1.3l0,0l0,0l0,0l0,0
		c-2.899,0-9,6-10.1,14.4c-1,7.899,4.5,13,10.1,13l0,0l0,0l0,0l0,0C20.6,28.7,26.1,23.6,25.1,15.7z"/>
	<polygon fill="#FFFFFF" points="21.9,9 21.227,13.312 19,9.6 18.2,8.4 17.9,9.8 17.129,13.484 14.4,11.5 14.2,11.3 14,11.5 
		10.516,15.759 9.4,12.6 10.4,16 10.4,16.2 10.601,16.1 14.179,12.145 17.2,14.601 17.7,15 17.9,14.3 18.625,11.533 21,15.9 
		21.9,17.8 22.4,15.7 23.8,9.3 	"/>
</g>
</svg>
