<?xml version="1.0" encoding="utf-8"?>
<!-- Generator: Adobe Illustrator 15.1.0, SVG Export Plug-In . SVG Version: 6.00 Build 0)  -->
<!DOCTYPE svg PUBLIC "-//W3C//DTD SVG 1.1//EN" "http://www.w3.org/Graphics/SVG/1.1/DTD/svg11.dtd">
<svg version="1.1" id="Layer_1" xmlns="http://www.w3.org/2000/svg" xmlns:xlink="http://www.w3.org/1999/xlink" x="0px" y="0px"
	 width="30px" height="30px" viewBox="0 0 30 30" enable-background="new 0 0 30 30" xml:space="preserve">
<g>
	<polygon fill="#FFFFFF" points="47.667,12.162 50.082,11.994 49.935,12.082 50.635,10.536 50.764,10.251 51.068,10.439 
		52.564,11.362 51.978,11.439 53.835,9.002 54.036,8.74 54.425,8.849 56.16,9.333 55.253,9.69 55.867,8.242 56.198,7.459 
		56.975,7.921 58.183,8.64 57.393,8.593 58.902,7.72 59.613,7.309 60.105,8.062 61.462,10.138 60.195,9.801 61.659,9.014 
		62.085,8.785 62.539,8.996 64.216,9.774 63.36,11.582 61.695,10.78 62.575,10.762 61.094,11.518 60.292,11.927 59.827,11.18 
		58.519,9.073 59.721,9.415 58.1,10.055 57.642,10.235 57.31,10.008 56.148,9.214 57.257,8.893 56.538,10.292 56.198,10.954 
		55.631,10.649 54.043,9.799 54.633,9.646 52.646,11.979 52.361,12.313 52.059,12.056 50.721,10.917 51.154,10.82 50.229,12.243 
		50.169,12.336 50.082,12.33 	"/>
</g>
<path fill="none" stroke="#FFFFFF" stroke-width="2" stroke-miterlimit="10" d="M65.1,15.7C64,7.3,57.9,1.3,55,1.3l0,0l0,0l0,0l0,0
	c-2.898,0-9,6-10.1,14.4c-1,7.899,4.5,13,10.1,13l0,0l0,0l0,0l0,0C60.6,28.7,66.1,23.6,65.1,15.7z"/>
<g>
	<polygon fill="#FFFFFF" points="46.917,14.333 48.317,13.132 48.416,13.047 48.501,13.163 50.235,15.513 50.033,15.415 
		52.935,15.11 53.103,15.093 53.23,15.239 56.282,18.721 55.442,18.826 56.643,15.931 56.941,15.212 57.614,15.687 60.244,17.54 
		59.095,18.008 59.642,13.811 59.856,12.163 61.079,13.347 63.372,15.566 61.858,15.949 63.154,11.231 65.072,11.798 63.599,16.463 
		63.132,17.939 62.085,16.846 59.878,14.542 61.315,14.078 60.528,18.237 60.303,19.426 59.379,18.705 56.843,16.726 57.814,16.482 
		56.349,19.252 55.974,19.962 55.508,19.357 52.684,15.689 52.979,15.817 50.061,15.871 49.923,15.873 49.858,15.771 48.288,13.31 
		48.472,13.34 	"/>
</g>
<circle fill="#FFFFFF" cx="55.896" cy="12.162" r="2.838"/>
<g>
	<path fill="none" stroke="#466FB5" stroke-width="2" stroke-miterlimit="10" d="M25.1-24.3C24-32.7,17.9-38.7,15-38.7l0,0l0,0l0,0
		l0,0c-2.898,0-9,6-10.1,14.4c-1,7.9,4.5,13,10.1,13l0,0l0,0l0,0l0,0C20.6-11.3,26.1-16.399,25.1-24.3z"/>
	<polygon fill="#466FB5" points="21.9,-31 21.227,-26.688 19,-30.399 18.201,-31.6 17.9,-30.2 17.129,-26.516 14.4,-28.5 
		14.2,-28.7 14,-28.5 10.517,-24.239 9.4,-27.399 10.4,-23.999 10.4,-23.8 10.602,-23.899 14.18,-27.854 17.201,-25.399 17.701,-25 
		17.9,-25.7 18.625,-28.467 21,-24.099 21.9,-22.2 22.4,-24.3 23.801,-30.7 	"/>
</g>
<g>
	<path fill="none" stroke="#FFFFFF" stroke-width="2" stroke-miterlimit="10" d="M65.1-24.3C64-32.7,57.9-38.7,55-38.7l0,0l0,0l0,0
		l0,0c-2.898,0-9,6-10.1,14.4c-1,7.9,4.5,13,10.1,13l0,0l0,0l0,0l0,0C60.6-11.3,66.1-16.399,65.1-24.3z"/>
	<polygon fill="#FFFFFF" points="61.9,-31 61.227,-26.688 59,-30.399 58.201,-31.6 57.9,-30.2 57.129,-26.516 54.4,-28.5 
		54.2,-28.7 54,-28.5 50.517,-24.239 49.4,-27.399 50.4,-23.999 50.4,-23.8 50.602,-23.899 54.18,-27.854 57.201,-25.399 
		57.701,-25 57.9,-25.7 58.625,-28.467 61,-24.099 61.9,-22.2 62.4,-24.3 63.801,-30.7 	"/>
</g>
<g>
	<path fill="none" stroke="#466FB5" stroke-width="2" stroke-miterlimit="10" d="M105.1-24.3C104-32.7,97.9-38.7,95-38.7l0,0l0,0
		l0,0l0,0c-2.898,0-9,6-10.1,14.4c-1,7.9,4.5,13,10.1,13l0,0l0,0l0,0l0,0C100.6-11.3,106.1-16.399,105.1-24.3z"/>
	<polygon fill="#466FB5" points="101.9,-31 101.227,-26.688 99,-30.399 98.201,-31.6 97.9,-30.2 97.129,-26.516 94.4,-28.5 
		94.2,-28.7 94,-28.5 90.517,-24.239 89.4,-27.399 90.4,-23.999 90.4,-23.8 90.602,-23.899 94.18,-27.854 97.201,-25.399 
		97.701,-25 97.9,-25.7 98.625,-28.467 101,-24.099 101.9,-22.2 102.4,-24.3 103.801,-30.7 	"/>
</g>
<g>
	<g>
		<polygon fill="#466FB5" points="7.667,12.162 10.082,11.994 9.935,12.082 10.635,10.536 10.764,10.251 11.068,10.439 
			12.564,11.362 11.978,11.439 13.835,9.002 14.036,8.74 14.425,8.849 16.16,9.333 15.253,9.69 15.867,8.242 16.198,7.459 
			16.975,7.921 18.183,8.64 17.393,8.593 18.902,7.72 19.613,7.309 20.105,8.062 21.461,10.138 20.195,9.801 21.659,9.014 
			22.085,8.785 22.539,8.996 24.215,9.774 23.361,11.582 21.695,10.78 22.575,10.762 21.094,11.518 20.292,11.927 19.828,11.18 
			18.518,9.073 19.721,9.415 18.099,10.055 17.642,10.235 17.309,10.008 16.149,9.214 17.256,8.893 16.538,10.292 16.198,10.954 
			15.631,10.649 14.043,9.799 14.633,9.646 12.646,11.979 12.361,12.313 12.059,12.056 10.721,10.917 11.154,10.82 10.229,12.243 
			10.169,12.336 10.082,12.33 		"/>
	</g>
	<path fill="none" stroke="#466FB5" stroke-width="2" stroke-miterlimit="10" d="M25.1,15.7C24,7.3,17.9,1.3,15,1.3l0,0l0,0l0,0l0,0
		c-2.898,0-9,6-10.1,14.4c-1,7.899,4.5,13,10.1,13l0,0l0,0l0,0l0,0C20.6,28.7,26.1,23.6,25.1,15.7z"/>
	<g>
		<polygon fill="#466FB5" points="6.917,14.333 8.317,13.132 8.416,13.047 8.501,13.163 10.235,15.513 10.033,15.415 12.935,15.11 
			13.103,15.093 13.23,15.239 16.283,18.721 15.442,18.826 16.643,15.931 16.941,15.212 17.614,15.687 20.244,17.54 19.095,18.008 
			19.642,13.811 19.856,12.163 21.079,13.347 23.372,15.566 21.858,15.949 23.154,11.231 25.072,11.798 23.599,16.463 
			23.132,17.939 22.085,16.846 19.878,14.542 21.315,14.078 20.528,18.237 20.303,19.426 19.379,18.705 16.843,16.726 
			17.814,16.482 16.349,19.252 15.974,19.962 15.508,19.357 12.684,15.689 12.979,15.817 10.061,15.871 9.923,15.873 9.858,15.771 
			8.288,13.31 8.472,13.34 		"/>
	</g>
	<circle fill="#466FB5" cx="15.896" cy="12.162" r="2.838"/>
</g>
<g>
	<circle fill="#466FB5" cx="15" cy="55" r="5.727"/>
	<path fill="none" stroke="#466FB5" stroke-width="2" stroke-miterlimit="10" d="M9.656,66.415
		c-3.979-2.122-8.225-8.756-7.075-14.417s6.317-6.097,9.376-8.491c4.069-3.185,10.697-1.487,14.418,5.926
		c2.742,5.463,0,6.104,0.423,10.601C27.424,66.658,17.006,70.335,9.656,66.415z"/>
</g>
<circle fill="#FFFFFF" cx="55" cy="55" r="5.727"/>
<path fill="none" stroke="#FFFFFF" stroke-width="2" stroke-miterlimit="10" d="M49.656,66.415
	c-3.979-2.122-8.225-8.756-7.075-14.417s6.317-6.097,9.376-8.491c4.068-3.185,10.697-1.487,14.418,5.926
	c2.742,5.463,0,6.104,0.424,10.601C67.424,66.658,57.006,70.335,49.656,66.415z"/>
<circle fill="#406FC0" cx="9.906" cy="92.508" r="2.921"/>
<circle fill="#406FC0" cx="20.165" cy="92.508" r="2.921"/>
<path fill="none" stroke="#406FC0" stroke-width="2" stroke-miterlimit="10" d="M6.985,97.764c1.995,3.398,4.916,5.302,8.05,5.302
	s6.056-1.904,8.05-5.302H6.985L6.985,97.764z"/>
<circle fill="none" stroke="#466FB5" stroke-width="2" stroke-miterlimit="10" cx="15" cy="95" r="12.997"/>
<circle fill="#FFFFFF" cx="49.906" cy="92.509" r="2.921"/>
<circle fill="#FFFFFF" cx="60.165" cy="92.509" r="2.921"/>
<path fill="none" stroke="#FFFFFF" stroke-width="2" stroke-miterlimit="10" d="M46.985,97.764c1.995,3.398,4.916,5.303,8.051,5.303
	s6.056-1.904,8.051-5.303H46.985L46.985,97.764z"/>
<circle fill="none" stroke="#FFFFFF" stroke-width="2" stroke-miterlimit="10" cx="55" cy="95" r="12.997"/>
</svg>
