<?xml version="1.0" encoding="utf-8"?>
<!-- Generator: Adobe Illustrator 15.1.0, SVG Export Plug-In . SVG Version: 6.00 Build 0)  -->
<!DOCTYPE svg PUBLIC "-//W3C//DTD SVG 1.1//EN" "http://www.w3.org/Graphics/SVG/1.1/DTD/svg11.dtd">
<svg version="1.1" id="Layer_1" xmlns="http://www.w3.org/2000/svg" xmlns:xlink="http://www.w3.org/1999/xlink" x="0px" y="0px"
	 width="30px" height="30px" viewBox="0 0 30 30" enable-background="new 0 0 30 30" xml:space="preserve">
<g>
	<polygon fill="#FFFFFF" points="47.667,-27.838 50.082,-28.006 49.935,-27.918 50.635,-29.464 50.764,-29.749 51.068,-29.561 
		52.564,-28.638 51.978,-28.561 53.835,-30.998 54.036,-31.26 54.425,-31.151 56.16,-30.667 55.253,-30.31 55.867,-31.758 
		56.198,-32.541 56.975,-32.079 58.183,-31.36 57.393,-31.407 58.902,-32.28 59.613,-32.691 60.105,-31.938 61.462,-29.862 
		60.195,-30.199 61.659,-30.986 62.085,-31.215 62.539,-31.004 64.216,-30.226 63.36,-28.418 61.695,-29.22 62.575,-29.238 
		61.094,-28.482 60.292,-28.073 59.827,-28.82 58.519,-30.927 59.721,-30.585 58.1,-29.945 57.642,-29.765 57.31,-29.992 
		56.148,-30.786 57.257,-31.107 56.538,-29.708 56.198,-29.046 55.631,-29.351 54.043,-30.201 54.633,-30.354 52.646,-28.021 
		52.361,-27.687 52.059,-27.944 50.721,-29.083 51.154,-29.18 50.229,-27.757 50.169,-27.664 50.082,-27.67 	"/>
</g>
<path fill="none" stroke="#FFFFFF" stroke-width="2" stroke-miterlimit="10" d="M65.1-24.3C64-32.7,57.9-38.7,55-38.7l0,0l0,0l0,0
	l0,0c-2.898,0-9,6-10.1,14.4c-1,7.899,4.5,13,10.1,13l0,0l0,0l0,0l0,0C60.6-11.3,66.1-16.4,65.1-24.3z"/>
<g>
	<polygon fill="#FFFFFF" points="46.917,-25.667 48.317,-26.868 48.416,-26.953 48.501,-26.837 50.235,-24.487 50.033,-24.585 
		52.935,-24.89 53.103,-24.907 53.23,-24.761 56.282,-21.279 55.442,-21.174 56.643,-24.069 56.941,-24.788 57.614,-24.313 
		60.244,-22.46 59.095,-21.992 59.642,-26.189 59.856,-27.837 61.079,-26.653 63.372,-24.434 61.858,-24.051 63.154,-28.769 
		65.072,-28.202 63.599,-23.537 63.132,-22.061 62.085,-23.154 59.878,-25.458 61.315,-25.922 60.528,-21.763 60.303,-20.574 
		59.379,-21.295 56.843,-23.274 57.814,-23.518 56.349,-20.748 55.974,-20.038 55.508,-20.643 52.684,-24.311 52.979,-24.183 
		50.061,-24.129 49.923,-24.127 49.858,-24.229 48.288,-26.69 48.472,-26.66 	"/>
</g>
<circle fill="#FFFFFF" cx="55.896" cy="-27.838" r="2.838"/>
<g>
	<path fill="none" stroke="#466FB5" stroke-width="2" stroke-miterlimit="10" d="M25.1-64.3C24-72.7,17.9-78.7,15-78.7l0,0l0,0l0,0
		l0,0c-2.898,0-9,6-10.1,14.4c-1,7.9,4.5,13,10.1,13l0,0l0,0l0,0l0,0C20.6-51.3,26.1-56.399,25.1-64.3z"/>
	<polygon fill="#466FB5" points="21.9,-71 21.227,-66.688 19,-70.399 18.201,-71.6 17.9,-70.2 17.129,-66.516 14.4,-68.5 
		14.2,-68.7 14,-68.5 10.517,-64.239 9.4,-67.399 10.4,-63.999 10.4,-63.8 10.602,-63.899 14.18,-67.854 17.201,-65.399 17.701,-65 
		17.9,-65.7 18.625,-68.467 21,-64.099 21.9,-62.2 22.4,-64.3 23.801,-70.7 	"/>
</g>
<g>
	<path fill="none" stroke="#FFFFFF" stroke-width="2" stroke-miterlimit="10" d="M65.1-64.3C64-72.7,57.9-78.7,55-78.7l0,0l0,0l0,0
		l0,0c-2.898,0-9,6-10.1,14.4c-1,7.9,4.5,13,10.1,13l0,0l0,0l0,0l0,0C60.6-51.3,66.1-56.399,65.1-64.3z"/>
	<polygon fill="#FFFFFF" points="61.9,-71 61.227,-66.688 59,-70.399 58.201,-71.6 57.9,-70.2 57.129,-66.516 54.4,-68.5 
		54.2,-68.7 54,-68.5 50.517,-64.239 49.4,-67.399 50.4,-63.999 50.4,-63.8 50.602,-63.899 54.18,-67.854 57.201,-65.399 
		57.701,-65 57.9,-65.7 58.625,-68.467 61,-64.099 61.9,-62.2 62.4,-64.3 63.801,-70.7 	"/>
</g>
<g>
	<path fill="none" stroke="#466FB5" stroke-width="2" stroke-miterlimit="10" d="M105.1-64.3C104-72.7,97.9-78.7,95-78.7l0,0l0,0
		l0,0l0,0c-2.898,0-9,6-10.1,14.4c-1,7.9,4.5,13,10.1,13l0,0l0,0l0,0l0,0C100.6-51.3,106.1-56.399,105.1-64.3z"/>
	<polygon fill="#466FB5" points="101.9,-71 101.227,-66.688 99,-70.399 98.201,-71.6 97.9,-70.2 97.129,-66.516 94.4,-68.5 
		94.2,-68.7 94,-68.5 90.517,-64.239 89.4,-67.399 90.4,-63.999 90.4,-63.8 90.602,-63.899 94.18,-67.854 97.201,-65.399 
		97.701,-65 97.9,-65.7 98.625,-68.467 101,-64.099 101.9,-62.2 102.4,-64.3 103.801,-70.7 	"/>
</g>
<g>
	<g>
		<polygon fill="#466FB5" points="7.667,-27.838 10.082,-28.006 9.935,-27.918 10.635,-29.464 10.764,-29.749 11.068,-29.561 
			12.564,-28.638 11.978,-28.561 13.835,-30.998 14.036,-31.26 14.425,-31.151 16.16,-30.667 15.253,-30.31 15.867,-31.758 
			16.198,-32.541 16.975,-32.079 18.183,-31.36 17.393,-31.407 18.902,-32.28 19.613,-32.691 20.105,-31.938 21.461,-29.862 
			20.195,-30.199 21.659,-30.986 22.085,-31.215 22.539,-31.004 24.215,-30.226 23.361,-28.418 21.695,-29.22 22.575,-29.238 
			21.094,-28.482 20.292,-28.073 19.828,-28.82 18.518,-30.927 19.721,-30.585 18.099,-29.945 17.642,-29.765 17.309,-29.992 
			16.149,-30.786 17.256,-31.107 16.538,-29.708 16.198,-29.046 15.631,-29.351 14.043,-30.201 14.633,-30.354 12.646,-28.021 
			12.361,-27.687 12.059,-27.944 10.721,-29.083 11.154,-29.18 10.229,-27.757 10.169,-27.664 10.082,-27.67 		"/>
	</g>
	<path fill="none" stroke="#466FB5" stroke-width="2" stroke-miterlimit="10" d="M25.1-24.3C24-32.7,17.9-38.7,15-38.7l0,0l0,0l0,0
		l0,0c-2.898,0-9,6-10.1,14.4c-1,7.899,4.5,13,10.1,13l0,0l0,0l0,0l0,0C20.6-11.3,26.1-16.4,25.1-24.3z"/>
	<g>
		<polygon fill="#466FB5" points="6.917,-25.667 8.317,-26.868 8.416,-26.953 8.501,-26.837 10.235,-24.487 10.033,-24.585 
			12.935,-24.89 13.103,-24.907 13.23,-24.761 16.283,-21.279 15.442,-21.174 16.643,-24.069 16.941,-24.788 17.614,-24.313 
			20.244,-22.46 19.095,-21.992 19.642,-26.189 19.856,-27.837 21.079,-26.653 23.372,-24.434 21.858,-24.051 23.154,-28.769 
			25.072,-28.202 23.599,-23.537 23.132,-22.061 22.085,-23.154 19.878,-25.458 21.315,-25.922 20.528,-21.763 20.303,-20.574 
			19.379,-21.295 16.843,-23.274 17.814,-23.518 16.349,-20.748 15.974,-20.038 15.508,-20.643 12.684,-24.311 12.979,-24.183 
			10.061,-24.129 9.923,-24.127 9.858,-24.229 8.288,-26.69 8.472,-26.66 		"/>
	</g>
	<circle fill="#466FB5" cx="15.896" cy="-27.838" r="2.838"/>
</g>
<g>
	<circle fill="#466FB5" cx="15" cy="15" r="5.727"/>
	<path fill="none" stroke="#466FB5" stroke-width="2" stroke-miterlimit="10" d="M9.656,26.415
		c-3.979-2.122-8.225-8.756-7.075-14.417s6.317-6.097,9.376-8.491c4.069-3.185,10.697-1.487,14.418,5.926
		c2.742,5.463,0,6.104,0.423,10.601C27.424,26.658,17.006,30.335,9.656,26.415z"/>
</g>
<circle fill="#FFFFFF" cx="55" cy="15" r="5.727"/>
<path fill="none" stroke="#FFFFFF" stroke-width="2" stroke-miterlimit="10" d="M49.656,26.415
	c-3.979-2.122-8.225-8.756-7.075-14.417s6.317-6.097,9.376-8.491c4.068-3.185,10.697-1.487,14.418,5.926
	c2.742,5.463,0,6.104,0.424,10.601C67.424,26.658,57.006,30.335,49.656,26.415z"/>
<circle fill="#406FC0" cx="9.906" cy="52.508" r="2.921"/>
<circle fill="#406FC0" cx="20.165" cy="52.508" r="2.921"/>
<path fill="none" stroke="#406FC0" stroke-width="2" stroke-miterlimit="10" d="M6.985,57.764c1.995,3.398,4.916,5.302,8.05,5.302
	s6.056-1.904,8.05-5.302H6.985L6.985,57.764z"/>
<circle fill="none" stroke="#466FB5" stroke-width="2" stroke-miterlimit="10" cx="15" cy="55" r="12.997"/>
<circle fill="#FFFFFF" cx="49.906" cy="52.509" r="2.921"/>
<circle fill="#FFFFFF" cx="60.165" cy="52.509" r="2.921"/>
<path fill="none" stroke="#FFFFFF" stroke-width="2" stroke-miterlimit="10" d="M46.985,57.764c1.995,3.398,4.916,5.303,8.051,5.303
	s6.056-1.904,8.051-5.303H46.985L46.985,57.764z"/>
<circle fill="none" stroke="#FFFFFF" stroke-width="2" stroke-miterlimit="10" cx="55" cy="55" r="12.997"/>
</svg>
