<?xml version="1.0" encoding="utf-8"?>
<!-- Generator: Adobe Illustrator 15.1.0, SVG Export Plug-In . SVG Version: 6.00 Build 0)  -->
<!DOCTYPE svg PUBLIC "-//W3C//DTD SVG 1.1//EN" "http://www.w3.org/Graphics/SVG/1.1/DTD/svg11.dtd">
<svg version="1.1" id="Layer_1" xmlns="http://www.w3.org/2000/svg" xmlns:xlink="http://www.w3.org/1999/xlink" x="0px" y="0px"
	 width="30px" height="30px" viewBox="0 0 30 30" enable-background="new 0 0 30 30" xml:space="preserve">
<g>
	<path fill="#FFFFFF" stroke="#406FC4" stroke-width="2" stroke-miterlimit="10" d="M17.62,27.618
		c2.121-0.829,3.17-3.222,2.342-5.344l-7.688,3.009C13.105,27.404,15.498,28.449,17.62,27.618z"/>
	<path fill="#FFFFFF" stroke="#406FC4" stroke-width="2" stroke-miterlimit="10" d="M27.309,17.017
		c-0.877-2.241-2.707-2.346-4.823-3.47c-1.566-0.832-3.834-6.848-3.834-6.848C16.97,2.404,13.002,0.985,8.118,2.896
		c-4.883,1.912-6.833,5.646-5.151,9.941c0,0,2.418,5.96,1.833,7.634c-0.792,2.262-2.063,3.578-1.187,5.82
		c1.041,2.659,2.214,1.563,5.163,0.408l15.019-5.879C26.742,19.669,28.35,19.677,27.309,17.017z"/>
</g>
<path fill="#FFFFFF" stroke="#406FC4" stroke-width="2" stroke-miterlimit="10" d="M-47.425,12.328"/>
</svg>
