<?xml version="1.0" encoding="utf-8"?>
<!-- Generator: Adobe Illustrator 15.1.0, SVG Export Plug-In . SVG Version: 6.00 Build 0)  -->
<!DOCTYPE svg PUBLIC "-//W3C//DTD SVG 1.1//EN" "http://www.w3.org/Graphics/SVG/1.1/DTD/svg11.dtd">
<svg version="1.1" id="Layer_1" xmlns="http://www.w3.org/2000/svg" xmlns:xlink="http://www.w3.org/1999/xlink" x="0px" y="0px"
	 width="30px" height="30px" viewBox="0 0 30 30" enable-background="new 0 0 30 30" xml:space="preserve">
<g>
	<polygon fill="#FFFFFF" points="47.667,-67.838 50.082,-68.006 49.935,-67.918 50.635,-69.464 50.764,-69.749 51.068,-69.561 
		52.564,-68.638 51.978,-68.561 53.835,-70.998 54.036,-71.26 54.425,-71.151 56.16,-70.667 55.253,-70.31 55.867,-71.758 
		56.198,-72.541 56.975,-72.079 58.183,-71.36 57.393,-71.407 58.902,-72.28 59.613,-72.691 60.105,-71.938 61.462,-69.862 
		60.195,-70.199 61.659,-70.986 62.085,-71.215 62.539,-71.004 64.216,-70.226 63.36,-68.418 61.695,-69.22 62.575,-69.238 
		61.094,-68.482 60.292,-68.073 59.827,-68.82 58.519,-70.927 59.721,-70.585 58.1,-69.945 57.642,-69.765 57.31,-69.992 
		56.148,-70.786 57.257,-71.107 56.538,-69.708 56.198,-69.046 55.631,-69.351 54.043,-70.201 54.633,-70.354 52.646,-68.021 
		52.361,-67.687 52.059,-67.944 50.721,-69.083 51.154,-69.18 50.229,-67.757 50.169,-67.664 50.082,-67.67 	"/>
</g>
<path fill="none" stroke="#FFFFFF" stroke-width="2" stroke-miterlimit="10" d="M65.1-64.3C64-72.7,57.9-78.7,55-78.7l0,0l0,0l0,0
	l0,0c-2.898,0-9,6-10.1,14.4c-1,7.899,4.5,13,10.1,13l0,0l0,0l0,0l0,0C60.6-51.3,66.1-56.4,65.1-64.3z"/>
<g>
	<polygon fill="#FFFFFF" points="46.917,-65.667 48.317,-66.868 48.416,-66.953 48.501,-66.837 50.235,-64.487 50.033,-64.585 
		52.935,-64.89 53.103,-64.907 53.23,-64.761 56.282,-61.279 55.442,-61.174 56.643,-64.069 56.941,-64.788 57.614,-64.313 
		60.244,-62.46 59.095,-61.992 59.642,-66.189 59.856,-67.837 61.079,-66.653 63.372,-64.434 61.858,-64.051 63.154,-68.769 
		65.072,-68.202 63.599,-63.537 63.132,-62.061 62.085,-63.154 59.878,-65.458 61.315,-65.922 60.528,-61.763 60.303,-60.574 
		59.379,-61.295 56.843,-63.274 57.814,-63.518 56.349,-60.748 55.974,-60.038 55.508,-60.643 52.684,-64.311 52.979,-64.183 
		50.061,-64.129 49.923,-64.127 49.858,-64.229 48.288,-66.69 48.472,-66.66 	"/>
</g>
<circle fill="#FFFFFF" cx="55.896" cy="-67.838" r="2.838"/>
<g>
	<path fill="none" stroke="#466FB5" stroke-width="2" stroke-miterlimit="10" d="M25.1-104.3C24-112.7,17.9-118.7,15-118.7l0,0l0,0
		l0,0l0,0c-2.898,0-9,6-10.1,14.4c-1,7.9,4.5,13,10.1,13l0,0l0,0l0,0l0,0C20.6-91.3,26.1-96.399,25.1-104.3z"/>
	<polygon fill="#466FB5" points="21.9,-111 21.227,-106.688 19,-110.399 18.201,-111.6 17.9,-110.2 17.129,-106.516 14.4,-108.5 
		14.2,-108.7 14,-108.5 10.517,-104.239 9.4,-107.399 10.4,-103.999 10.4,-103.8 10.602,-103.899 14.18,-107.854 17.201,-105.399 
		17.701,-105 17.9,-105.7 18.625,-108.467 21,-104.099 21.9,-102.2 22.4,-104.3 23.801,-110.7 	"/>
</g>
<g>
	<path fill="none" stroke="#FFFFFF" stroke-width="2" stroke-miterlimit="10" d="M65.1-104.3C64-112.7,57.9-118.7,55-118.7l0,0l0,0
		l0,0l0,0c-2.898,0-9,6-10.1,14.4c-1,7.9,4.5,13,10.1,13l0,0l0,0l0,0l0,0C60.6-91.3,66.1-96.399,65.1-104.3z"/>
	<polygon fill="#FFFFFF" points="61.9,-111 61.227,-106.688 59,-110.399 58.201,-111.6 57.9,-110.2 57.129,-106.516 54.4,-108.5 
		54.2,-108.7 54,-108.5 50.517,-104.239 49.4,-107.399 50.4,-103.999 50.4,-103.8 50.602,-103.899 54.18,-107.854 57.201,-105.399 
		57.701,-105 57.9,-105.7 58.625,-108.467 61,-104.099 61.9,-102.2 62.4,-104.3 63.801,-110.7 	"/>
</g>
<g>
	<path fill="none" stroke="#466FB5" stroke-width="2" stroke-miterlimit="10" d="M105.1-104.3c-1.1-8.4-7.199-14.4-10.1-14.4l0,0
		l0,0l0,0l0,0c-2.898,0-9,6-10.1,14.4c-1,7.9,4.5,13,10.1,13l0,0l0,0l0,0l0,0C100.6-91.3,106.1-96.399,105.1-104.3z"/>
	<polygon fill="#466FB5" points="101.9,-111 101.227,-106.688 99,-110.399 98.201,-111.6 97.9,-110.2 97.129,-106.516 94.4,-108.5 
		94.2,-108.7 94,-108.5 90.517,-104.239 89.4,-107.399 90.4,-103.999 90.4,-103.8 90.602,-103.899 94.18,-107.854 97.201,-105.399 
		97.701,-105 97.9,-105.7 98.625,-108.467 101,-104.099 101.9,-102.2 102.4,-104.3 103.801,-110.7 	"/>
</g>
<g>
	<g>
		<polygon fill="#466FB5" points="7.667,-67.838 10.082,-68.006 9.935,-67.918 10.635,-69.464 10.764,-69.749 11.068,-69.561 
			12.564,-68.638 11.978,-68.561 13.835,-70.998 14.036,-71.26 14.425,-71.151 16.16,-70.667 15.253,-70.31 15.867,-71.758 
			16.198,-72.541 16.975,-72.079 18.183,-71.36 17.393,-71.407 18.902,-72.28 19.613,-72.691 20.105,-71.938 21.461,-69.862 
			20.195,-70.199 21.659,-70.986 22.085,-71.215 22.539,-71.004 24.215,-70.226 23.361,-68.418 21.695,-69.22 22.575,-69.238 
			21.094,-68.482 20.292,-68.073 19.828,-68.82 18.518,-70.927 19.721,-70.585 18.099,-69.945 17.642,-69.765 17.309,-69.992 
			16.149,-70.786 17.256,-71.107 16.538,-69.708 16.198,-69.046 15.631,-69.351 14.043,-70.201 14.633,-70.354 12.646,-68.021 
			12.361,-67.687 12.059,-67.944 10.721,-69.083 11.154,-69.18 10.229,-67.757 10.169,-67.664 10.082,-67.67 		"/>
	</g>
	<path fill="none" stroke="#466FB5" stroke-width="2" stroke-miterlimit="10" d="M25.1-64.3C24-72.7,17.9-78.7,15-78.7l0,0l0,0l0,0
		l0,0c-2.898,0-9,6-10.1,14.4c-1,7.899,4.5,13,10.1,13l0,0l0,0l0,0l0,0C20.6-51.3,26.1-56.4,25.1-64.3z"/>
	<g>
		<polygon fill="#466FB5" points="6.917,-65.667 8.317,-66.868 8.416,-66.953 8.501,-66.837 10.235,-64.487 10.033,-64.585 
			12.935,-64.89 13.103,-64.907 13.23,-64.761 16.283,-61.279 15.442,-61.174 16.643,-64.069 16.941,-64.788 17.614,-64.313 
			20.244,-62.46 19.095,-61.992 19.642,-66.189 19.856,-67.837 21.079,-66.653 23.372,-64.434 21.858,-64.051 23.154,-68.769 
			25.072,-68.202 23.599,-63.537 23.132,-62.061 22.085,-63.154 19.878,-65.458 21.315,-65.922 20.528,-61.763 20.303,-60.574 
			19.379,-61.295 16.843,-63.274 17.814,-63.518 16.349,-60.748 15.974,-60.038 15.508,-60.643 12.684,-64.311 12.979,-64.183 
			10.061,-64.129 9.923,-64.127 9.858,-64.229 8.288,-66.69 8.472,-66.66 		"/>
	</g>
	<circle fill="#466FB5" cx="15.896" cy="-67.838" r="2.838"/>
</g>
<g>
	<circle fill="#466FB5" cx="15" cy="-25" r="5.727"/>
	<path fill="none" stroke="#466FB5" stroke-width="2" stroke-miterlimit="10" d="M9.656-13.585
		c-3.979-2.122-8.225-8.756-7.075-14.417s6.317-6.097,9.376-8.491c4.069-3.185,10.697-1.487,14.418,5.926
		c2.742,5.463,0,6.104,0.423,10.601C27.424-13.342,17.006-9.665,9.656-13.585z"/>
</g>
<circle fill="#FFFFFF" cx="55" cy="-25" r="5.727"/>
<path fill="none" stroke="#FFFFFF" stroke-width="2" stroke-miterlimit="10" d="M49.656-13.585
	c-3.979-2.122-8.225-8.756-7.075-14.417s6.317-6.097,9.376-8.491c4.068-3.185,10.697-1.487,14.418,5.926
	c2.742,5.463,0,6.104,0.424,10.601C67.424-13.342,57.006-9.665,49.656-13.585z"/>
<circle fill="#406FC0" cx="9.906" cy="12.508" r="2.921"/>
<circle fill="#406FC0" cx="20.165" cy="12.508" r="2.921"/>
<path fill="none" stroke="#406FC0" stroke-width="2" stroke-miterlimit="10" d="M6.985,17.764c1.995,3.398,4.916,5.302,8.05,5.302
	s6.056-1.904,8.05-5.302H6.985L6.985,17.764z"/>
<circle fill="none" stroke="#466FB5" stroke-width="2" stroke-miterlimit="10" cx="15" cy="15" r="12.997"/>
<g>
	<circle fill="#FFFFFF" cx="49.906" cy="12.509" r="2.921"/>
	<circle fill="#FFFFFF" cx="60.165" cy="12.509" r="2.921"/>
	<path fill="none" stroke="#FFFFFF" stroke-width="2" stroke-miterlimit="10" d="M46.985,17.764
		c1.995,3.398,4.916,5.303,8.051,5.303s6.056-1.904,8.051-5.303H46.985L46.985,17.764z"/>
	<circle fill="none" stroke="#FFFFFF" stroke-width="2" stroke-miterlimit="10" cx="55" cy="15" r="12.997"/>
</g>
</svg>
