<?xml version="1.0" encoding="utf-8"?>
<!-- Generator: Adobe Illustrator 15.1.0, SVG Export Plug-In . SVG Version: 6.00 Build 0)  -->
<!DOCTYPE svg PUBLIC "-//W3C//DTD SVG 1.1//EN" "http://www.w3.org/Graphics/SVG/1.1/DTD/svg11.dtd">
<svg version="1.1" id="Layer_1" xmlns="http://www.w3.org/2000/svg" xmlns:xlink="http://www.w3.org/1999/xlink" x="0px" y="0px"
	 width="30px" height="30px" viewBox="0 0 30 30" enable-background="new 0 0 30 30" xml:space="preserve">
<g>
	<polygon fill="#FFFFFF" points="7.667,12.162 10.082,11.994 9.935,12.082 10.635,10.536 10.764,10.251 11.068,10.439 
		12.564,11.362 11.978,11.439 13.835,9.002 14.036,8.74 14.425,8.849 16.16,9.333 15.253,9.69 15.867,8.242 16.198,7.459 
		16.975,7.921 18.183,8.64 17.393,8.593 18.902,7.72 19.613,7.309 20.105,8.062 21.462,10.138 20.195,9.801 21.659,9.014 
		22.085,8.785 22.539,8.996 24.216,9.774 23.36,11.582 21.695,10.78 22.575,10.762 21.094,11.518 20.292,11.927 19.827,11.18 
		18.519,9.073 19.721,9.415 18.1,10.055 17.642,10.235 17.31,10.008 16.148,9.214 17.257,8.893 16.538,10.292 16.198,10.954 
		15.631,10.649 14.043,9.799 14.633,9.646 12.646,11.979 12.361,12.313 12.059,12.056 10.721,10.917 11.154,10.82 10.229,12.243 
		10.169,12.336 10.082,12.33 	"/>
</g>
<path fill="none" stroke="#FFFFFF" stroke-width="2" stroke-miterlimit="10" d="M25.1,15.7C24,7.3,17.9,1.3,15,1.3l0,0l0,0l0,0l0,0
	c-2.898,0-9,6-10.1,14.4c-1,7.899,4.5,13,10.1,13l0,0l0,0l0,0l0,0C20.6,28.7,26.1,23.6,25.1,15.7z"/>
<g>
	<polygon fill="#FFFFFF" points="6.917,14.333 8.317,13.132 8.416,13.047 8.501,13.163 10.235,15.513 10.033,15.415 12.935,15.11 
		13.103,15.093 13.23,15.239 16.282,18.721 15.442,18.826 16.643,15.931 16.941,15.212 17.614,15.687 20.244,17.54 19.095,18.008 
		19.642,13.811 19.856,12.163 21.079,13.347 23.372,15.566 21.858,15.949 23.154,11.231 25.072,11.798 23.599,16.463 23.132,17.939 
		22.085,16.846 19.878,14.542 21.315,14.078 20.528,18.237 20.303,19.426 19.379,18.705 16.843,16.726 17.814,16.482 16.349,19.252 
		15.974,19.962 15.508,19.357 12.684,15.689 12.979,15.817 10.061,15.871 9.923,15.873 9.858,15.771 8.288,13.31 8.472,13.34 	"/>
</g>
<circle fill="#FFFFFF" cx="15.896" cy="12.162" r="2.838"/>
<g>
	<path fill="none" stroke="#466FB5" stroke-width="2" stroke-miterlimit="10" d="M-14.9-24.3C-16-32.7-22.1-38.7-25-38.7l0,0l0,0
		l0,0l0,0c-2.898,0-9,6-10.1,14.4c-1,7.9,4.5,13,10.1,13l0,0l0,0l0,0l0,0C-19.4-11.3-13.9-16.399-14.9-24.3z"/>
	<polygon fill="#466FB5" points="-18.1,-31 -18.773,-26.688 -21,-30.399 -21.799,-31.6 -22.1,-30.2 -22.871,-26.516 -25.6,-28.5 
		-25.8,-28.7 -26,-28.5 -29.483,-24.239 -30.6,-27.399 -29.6,-23.999 -29.6,-23.8 -29.398,-23.899 -25.82,-27.854 -22.799,-25.399 
		-22.299,-25 -22.1,-25.7 -21.375,-28.467 -19,-24.099 -18.1,-22.2 -17.6,-24.3 -16.199,-30.7 	"/>
</g>
<g>
	<path fill="none" stroke="#FFFFFF" stroke-width="2" stroke-miterlimit="10" d="M25.1-24.3C24-32.7,17.9-38.7,15-38.7l0,0l0,0l0,0
		l0,0c-2.898,0-9,6-10.1,14.4c-1,7.9,4.5,13,10.1,13l0,0l0,0l0,0l0,0C20.6-11.3,26.1-16.399,25.1-24.3z"/>
	<polygon fill="#FFFFFF" points="21.9,-31 21.227,-26.688 19,-30.399 18.201,-31.6 17.9,-30.2 17.129,-26.516 14.4,-28.5 
		14.2,-28.7 14,-28.5 10.517,-24.239 9.4,-27.399 10.4,-23.999 10.4,-23.8 10.602,-23.899 14.18,-27.854 17.201,-25.399 17.701,-25 
		17.9,-25.7 18.625,-28.467 21,-24.099 21.9,-22.2 22.4,-24.3 23.801,-30.7 	"/>
</g>
<g>
	<path fill="none" stroke="#466FB5" stroke-width="2" stroke-miterlimit="10" d="M65.1-24.3C64-32.7,57.9-38.7,55-38.7l0,0l0,0l0,0
		l0,0c-2.898,0-9,6-10.1,14.4c-1,7.9,4.5,13,10.1,13l0,0l0,0l0,0l0,0C60.6-11.3,66.1-16.399,65.1-24.3z"/>
	<polygon fill="#466FB5" points="61.9,-31 61.227,-26.688 59,-30.399 58.201,-31.6 57.9,-30.2 57.129,-26.516 54.4,-28.5 
		54.2,-28.7 54,-28.5 50.517,-24.239 49.4,-27.399 50.4,-23.999 50.4,-23.8 50.602,-23.899 54.18,-27.854 57.201,-25.399 
		57.701,-25 57.9,-25.7 58.625,-28.467 61,-24.099 61.9,-22.2 62.4,-24.3 63.801,-30.7 	"/>
</g>
<g>
	<g>
		<polygon fill="#466FB5" points="-32.333,12.162 -29.918,11.994 -30.065,12.082 -29.365,10.536 -29.236,10.251 -28.932,10.439 
			-27.436,11.362 -28.022,11.439 -26.165,9.002 -25.964,8.74 -25.575,8.849 -23.84,9.333 -24.747,9.69 -24.133,8.242 -23.802,7.459 
			-23.025,7.921 -21.817,8.64 -22.607,8.593 -21.098,7.72 -20.387,7.309 -19.895,8.062 -18.539,10.138 -19.805,9.801 -18.341,9.014 
			-17.915,8.785 -17.461,8.996 -15.785,9.774 -16.639,11.582 -18.305,10.78 -17.425,10.762 -18.906,11.518 -19.708,11.927 
			-20.172,11.18 -21.482,9.073 -20.279,9.415 -21.901,10.055 -22.358,10.235 -22.691,10.008 -23.851,9.214 -22.744,8.893 
			-23.462,10.292 -23.802,10.954 -24.369,10.649 -25.957,9.799 -25.367,9.646 -27.354,11.979 -27.639,12.313 -27.941,12.056 
			-29.279,10.917 -28.846,10.82 -29.771,12.243 -29.831,12.336 -29.918,12.33 		"/>
	</g>
	<path fill="none" stroke="#466FB5" stroke-width="2" stroke-miterlimit="10" d="M-14.9,15.7C-16,7.3-22.1,1.3-25,1.3l0,0l0,0l0,0
		l0,0c-2.898,0-9,6-10.1,14.4c-1,7.899,4.5,13,10.1,13l0,0l0,0l0,0l0,0C-19.4,28.7-13.9,23.6-14.9,15.7z"/>
	<g>
		<polygon fill="#466FB5" points="-33.083,14.333 -31.683,13.132 -31.584,13.047 -31.499,13.163 -29.765,15.513 -29.967,15.415 
			-27.065,15.11 -26.897,15.093 -26.77,15.239 -23.717,18.721 -24.558,18.826 -23.357,15.931 -23.059,15.212 -22.386,15.687 
			-19.756,17.54 -20.905,18.008 -20.358,13.811 -20.144,12.163 -18.921,13.347 -16.628,15.566 -18.142,15.949 -16.846,11.231 
			-14.928,11.798 -16.401,16.463 -16.868,17.939 -17.915,16.846 -20.122,14.542 -18.685,14.078 -19.472,18.237 -19.697,19.426 
			-20.621,18.705 -23.157,16.726 -22.186,16.482 -23.651,19.252 -24.026,19.962 -24.492,19.357 -27.316,15.689 -27.021,15.817 
			-29.939,15.871 -30.077,15.873 -30.142,15.771 -31.712,13.31 -31.528,13.34 		"/>
	</g>
	<circle fill="#466FB5" cx="-24.104" cy="12.162" r="2.838"/>
</g>
<g>
	<circle fill="#466FB5" cx="-25" cy="55" r="5.727"/>
	<path fill="none" stroke="#466FB5" stroke-width="2" stroke-miterlimit="10" d="M-30.344,66.415
		c-3.979-2.122-8.225-8.756-7.075-14.417s6.317-6.097,9.376-8.491c4.069-3.185,10.697-1.487,14.418,5.926
		c2.742,5.463,0,6.104,0.423,10.601C-12.576,66.658-22.994,70.335-30.344,66.415z"/>
</g>
<circle fill="#FFFFFF" cx="15" cy="55" r="5.727"/>
<path fill="none" stroke="#FFFFFF" stroke-width="2" stroke-miterlimit="10" d="M9.656,66.415
	c-3.979-2.122-8.225-8.756-7.075-14.417s6.317-6.097,9.376-8.491c4.068-3.185,10.697-1.487,14.418,5.926
	c2.742,5.463,0,6.104,0.424,10.601C27.424,66.658,17.006,70.335,9.656,66.415z"/>
<circle fill="#406FC0" cx="-30.094" cy="92.508" r="2.921"/>
<circle fill="#406FC0" cx="-19.835" cy="92.508" r="2.921"/>
<path fill="none" stroke="#406FC0" stroke-width="2" stroke-miterlimit="10" d="M-33.015,97.764c1.995,3.398,4.916,5.302,8.05,5.302
	s6.056-1.904,8.05-5.302H-33.015L-33.015,97.764z"/>
<circle fill="none" stroke="#466FB5" stroke-width="2" stroke-miterlimit="10" cx="-25" cy="95" r="12.997"/>
<circle fill="#FFFFFF" cx="9.906" cy="92.509" r="2.921"/>
<circle fill="#FFFFFF" cx="20.165" cy="92.509" r="2.921"/>
<path fill="none" stroke="#FFFFFF" stroke-width="2" stroke-miterlimit="10" d="M6.985,97.764c1.995,3.398,4.916,5.303,8.051,5.303
	s6.056-1.904,8.051-5.303H6.985L6.985,97.764z"/>
<circle fill="none" stroke="#FFFFFF" stroke-width="2" stroke-miterlimit="10" cx="15" cy="95" r="12.997"/>
</svg>
