<?xml version="1.0" encoding="utf-8"?>
<!-- Generator: Adobe Illustrator 15.1.0, SVG Export Plug-In . SVG Version: 6.00 Build 0)  -->
<!DOCTYPE svg PUBLIC "-//W3C//DTD SVG 1.1//EN" "http://www.w3.org/Graphics/SVG/1.1/DTD/svg11.dtd">
<svg version="1.1" id="Layer_1" xmlns="http://www.w3.org/2000/svg" xmlns:xlink="http://www.w3.org/1999/xlink" x="0px" y="0px"
	 width="30px" height="30px" viewBox="0 0 30 30" enable-background="new 0 0 30 30" xml:space="preserve">
<g>
	<polygon fill="#FFFFFF" points="7.667,-67.838 10.082,-68.006 9.935,-67.918 10.635,-69.464 10.764,-69.749 11.068,-69.561 
		12.564,-68.638 11.978,-68.561 13.835,-70.998 14.036,-71.26 14.425,-71.151 16.16,-70.667 15.253,-70.31 15.867,-71.758 
		16.198,-72.541 16.975,-72.079 18.183,-71.36 17.393,-71.407 18.902,-72.28 19.613,-72.691 20.105,-71.938 21.462,-69.862 
		20.195,-70.199 21.659,-70.986 22.085,-71.215 22.539,-71.004 24.216,-70.226 23.36,-68.418 21.695,-69.22 22.575,-69.238 
		21.094,-68.482 20.292,-68.073 19.827,-68.82 18.519,-70.927 19.721,-70.585 18.1,-69.945 17.642,-69.765 17.31,-69.992 
		16.148,-70.786 17.257,-71.107 16.538,-69.708 16.198,-69.046 15.631,-69.351 14.043,-70.201 14.633,-70.354 12.646,-68.021 
		12.361,-67.687 12.059,-67.944 10.721,-69.083 11.154,-69.18 10.229,-67.757 10.169,-67.664 10.082,-67.67 	"/>
</g>
<path fill="none" stroke="#FFFFFF" stroke-width="2" stroke-miterlimit="10" d="M25.1-64.3C24-72.7,17.9-78.7,15-78.7l0,0l0,0l0,0
	l0,0c-2.898,0-9,6-10.1,14.4c-1,7.899,4.5,13,10.1,13l0,0l0,0l0,0l0,0C20.6-51.3,26.1-56.4,25.1-64.3z"/>
<g>
	<polygon fill="#FFFFFF" points="6.917,-65.667 8.317,-66.868 8.416,-66.953 8.501,-66.837 10.235,-64.487 10.033,-64.585 
		12.935,-64.89 13.103,-64.907 13.23,-64.761 16.282,-61.279 15.442,-61.174 16.643,-64.069 16.941,-64.788 17.614,-64.313 
		20.244,-62.46 19.095,-61.992 19.642,-66.189 19.856,-67.837 21.079,-66.653 23.372,-64.434 21.858,-64.051 23.154,-68.769 
		25.072,-68.202 23.599,-63.537 23.132,-62.061 22.085,-63.154 19.878,-65.458 21.315,-65.922 20.528,-61.763 20.303,-60.574 
		19.379,-61.295 16.843,-63.274 17.814,-63.518 16.349,-60.748 15.974,-60.038 15.508,-60.643 12.684,-64.311 12.979,-64.183 
		10.061,-64.129 9.923,-64.127 9.858,-64.229 8.288,-66.69 8.472,-66.66 	"/>
</g>
<circle fill="#FFFFFF" cx="15.896" cy="-67.838" r="2.838"/>
<g>
	<path fill="none" stroke="#466FB5" stroke-width="2" stroke-miterlimit="10" d="M-14.9-104.3c-1.1-8.4-7.199-14.4-10.1-14.4l0,0
		l0,0l0,0l0,0c-2.898,0-9,6-10.1,14.4c-1,7.9,4.5,13,10.1,13l0,0l0,0l0,0l0,0C-19.4-91.3-13.9-96.399-14.9-104.3z"/>
	<polygon fill="#466FB5" points="-18.1,-111 -18.773,-106.688 -21,-110.399 -21.799,-111.6 -22.1,-110.2 -22.871,-106.516 
		-25.6,-108.5 -25.8,-108.7 -26,-108.5 -29.483,-104.239 -30.6,-107.399 -29.6,-103.999 -29.6,-103.8 -29.398,-103.899 
		-25.82,-107.854 -22.799,-105.399 -22.299,-105 -22.1,-105.7 -21.375,-108.467 -19,-104.099 -18.1,-102.2 -17.6,-104.3 
		-16.199,-110.7 	"/>
</g>
<g>
	<path fill="none" stroke="#FFFFFF" stroke-width="2" stroke-miterlimit="10" d="M25.1-104.3C24-112.7,17.9-118.7,15-118.7l0,0l0,0
		l0,0l0,0c-2.898,0-9,6-10.1,14.4c-1,7.9,4.5,13,10.1,13l0,0l0,0l0,0l0,0C20.6-91.3,26.1-96.399,25.1-104.3z"/>
	<polygon fill="#FFFFFF" points="21.9,-111 21.227,-106.688 19,-110.399 18.201,-111.6 17.9,-110.2 17.129,-106.516 14.4,-108.5 
		14.2,-108.7 14,-108.5 10.517,-104.239 9.4,-107.399 10.4,-103.999 10.4,-103.8 10.602,-103.899 14.18,-107.854 17.201,-105.399 
		17.701,-105 17.9,-105.7 18.625,-108.467 21,-104.099 21.9,-102.2 22.4,-104.3 23.801,-110.7 	"/>
</g>
<g>
	<path fill="none" stroke="#466FB5" stroke-width="2" stroke-miterlimit="10" d="M65.1-104.3C64-112.7,57.9-118.7,55-118.7l0,0l0,0
		l0,0l0,0c-2.898,0-9,6-10.1,14.4c-1,7.9,4.5,13,10.1,13l0,0l0,0l0,0l0,0C60.6-91.3,66.1-96.399,65.1-104.3z"/>
	<polygon fill="#466FB5" points="61.9,-111 61.227,-106.688 59,-110.399 58.201,-111.6 57.9,-110.2 57.129,-106.516 54.4,-108.5 
		54.2,-108.7 54,-108.5 50.517,-104.239 49.4,-107.399 50.4,-103.999 50.4,-103.8 50.602,-103.899 54.18,-107.854 57.201,-105.399 
		57.701,-105 57.9,-105.7 58.625,-108.467 61,-104.099 61.9,-102.2 62.4,-104.3 63.801,-110.7 	"/>
</g>
<g>
	<g>
		<polygon fill="#466FB5" points="-32.333,-67.838 -29.918,-68.006 -30.065,-67.918 -29.365,-69.464 -29.236,-69.749 
			-28.932,-69.561 -27.436,-68.638 -28.022,-68.561 -26.165,-70.998 -25.964,-71.26 -25.575,-71.151 -23.84,-70.667 -24.747,-70.31 
			-24.133,-71.758 -23.802,-72.541 -23.025,-72.079 -21.817,-71.36 -22.607,-71.407 -21.098,-72.28 -20.387,-72.691 
			-19.895,-71.938 -18.539,-69.862 -19.805,-70.199 -18.341,-70.986 -17.915,-71.215 -17.461,-71.004 -15.785,-70.226 
			-16.639,-68.418 -18.305,-69.22 -17.425,-69.238 -18.906,-68.482 -19.708,-68.073 -20.172,-68.82 -21.482,-70.927 
			-20.279,-70.585 -21.901,-69.945 -22.358,-69.765 -22.691,-69.992 -23.851,-70.786 -22.744,-71.107 -23.462,-69.708 
			-23.802,-69.046 -24.369,-69.351 -25.957,-70.201 -25.367,-70.354 -27.354,-68.021 -27.639,-67.687 -27.941,-67.944 
			-29.279,-69.083 -28.846,-69.18 -29.771,-67.757 -29.831,-67.664 -29.918,-67.67 		"/>
	</g>
	<path fill="none" stroke="#466FB5" stroke-width="2" stroke-miterlimit="10" d="M-14.9-64.3C-16-72.7-22.1-78.7-25-78.7l0,0l0,0
		l0,0l0,0c-2.898,0-9,6-10.1,14.4c-1,7.899,4.5,13,10.1,13l0,0l0,0l0,0l0,0C-19.4-51.3-13.9-56.4-14.9-64.3z"/>
	<g>
		<polygon fill="#466FB5" points="-33.083,-65.667 -31.683,-66.868 -31.584,-66.953 -31.499,-66.837 -29.765,-64.487 
			-29.967,-64.585 -27.065,-64.89 -26.897,-64.907 -26.77,-64.761 -23.717,-61.279 -24.558,-61.174 -23.357,-64.069 
			-23.059,-64.788 -22.386,-64.313 -19.756,-62.46 -20.905,-61.992 -20.358,-66.189 -20.144,-67.837 -18.921,-66.653 
			-16.628,-64.434 -18.142,-64.051 -16.846,-68.769 -14.928,-68.202 -16.401,-63.537 -16.868,-62.061 -17.915,-63.154 
			-20.122,-65.458 -18.685,-65.922 -19.472,-61.763 -19.697,-60.574 -20.621,-61.295 -23.157,-63.274 -22.186,-63.518 
			-23.651,-60.748 -24.026,-60.038 -24.492,-60.643 -27.316,-64.311 -27.021,-64.183 -29.939,-64.129 -30.077,-64.127 
			-30.142,-64.229 -31.712,-66.69 -31.528,-66.66 		"/>
	</g>
	<circle fill="#466FB5" cx="-24.104" cy="-67.838" r="2.838"/>
</g>
<g>
	<circle fill="#466FB5" cx="-25" cy="-25" r="5.727"/>
	<path fill="none" stroke="#466FB5" stroke-width="2" stroke-miterlimit="10" d="M-30.344-13.585
		c-3.979-2.122-8.225-8.756-7.075-14.417s6.317-6.097,9.376-8.491c4.069-3.185,10.697-1.487,14.418,5.926
		c2.742,5.463,0,6.104,0.423,10.601C-12.576-13.342-22.994-9.665-30.344-13.585z"/>
</g>
<circle fill="#FFFFFF" cx="15" cy="-25" r="5.727"/>
<path fill="none" stroke="#FFFFFF" stroke-width="2" stroke-miterlimit="10" d="M9.656-13.585
	c-3.979-2.122-8.225-8.756-7.075-14.417s6.317-6.097,9.376-8.491c4.068-3.185,10.697-1.487,14.418,5.926
	c2.742,5.463,0,6.104,0.424,10.601C27.424-13.342,17.006-9.665,9.656-13.585z"/>
<circle fill="#406FC0" cx="-30.094" cy="12.508" r="2.921"/>
<circle fill="#406FC0" cx="-19.835" cy="12.508" r="2.921"/>
<path fill="none" stroke="#406FC0" stroke-width="2" stroke-miterlimit="10" d="M-33.015,17.764c1.995,3.398,4.916,5.302,8.05,5.302
	s6.056-1.904,8.05-5.302H-33.015L-33.015,17.764z"/>
<circle fill="none" stroke="#466FB5" stroke-width="2" stroke-miterlimit="10" cx="-25" cy="15" r="12.997"/>
<g>
	<circle fill="#FFFFFF" cx="9.906" cy="12.509" r="2.921"/>
	<circle fill="#FFFFFF" cx="20.165" cy="12.509" r="2.921"/>
	<path fill="none" stroke="#FFFFFF" stroke-width="2" stroke-miterlimit="10" d="M6.985,17.764c1.995,3.398,4.916,5.303,8.051,5.303
		s6.056-1.904,8.051-5.303H6.985L6.985,17.764z"/>
	<circle fill="none" stroke="#FFFFFF" stroke-width="2" stroke-miterlimit="10" cx="15" cy="15" r="12.997"/>
</g>
</svg>
