<?xml version="1.0" encoding="utf-8"?>
<!-- Generator: Adobe Illustrator 15.1.0, SVG Export Plug-In . SVG Version: 6.00 Build 0)  -->
<!DOCTYPE svg PUBLIC "-//W3C//DTD SVG 1.1//EN" "http://www.w3.org/Graphics/SVG/1.1/DTD/svg11.dtd">
<svg version="1.1" id="Layer_1" xmlns="http://www.w3.org/2000/svg" xmlns:xlink="http://www.w3.org/1999/xlink" x="0px" y="0px"
	 width="30px" height="30px" viewBox="0 0 30 30" enable-background="new 0 0 30 30" xml:space="preserve">
<g>
	<polygon fill="#FFFFFF" points="7.667,-27.838 10.082,-28.006 9.935,-27.918 10.635,-29.464 10.764,-29.749 11.068,-29.561 
		12.564,-28.638 11.978,-28.561 13.835,-30.998 14.036,-31.26 14.425,-31.151 16.16,-30.667 15.253,-30.31 15.867,-31.758 
		16.198,-32.541 16.975,-32.079 18.183,-31.36 17.393,-31.407 18.902,-32.28 19.613,-32.691 20.105,-31.938 21.462,-29.862 
		20.195,-30.199 21.659,-30.986 22.085,-31.215 22.539,-31.004 24.216,-30.226 23.36,-28.418 21.695,-29.22 22.575,-29.238 
		21.094,-28.482 20.292,-28.073 19.827,-28.82 18.519,-30.927 19.721,-30.585 18.1,-29.945 17.642,-29.765 17.31,-29.992 
		16.148,-30.786 17.257,-31.107 16.538,-29.708 16.198,-29.046 15.631,-29.351 14.043,-30.201 14.633,-30.354 12.646,-28.021 
		12.361,-27.687 12.059,-27.944 10.721,-29.083 11.154,-29.18 10.229,-27.757 10.169,-27.664 10.082,-27.67 	"/>
</g>
<path fill="none" stroke="#FFFFFF" stroke-width="2" stroke-miterlimit="10" d="M25.1-24.3C24-32.7,17.9-38.7,15-38.7l0,0l0,0l0,0
	l0,0c-2.898,0-9,6-10.1,14.4c-1,7.899,4.5,13,10.1,13l0,0l0,0l0,0l0,0C20.6-11.3,26.1-16.4,25.1-24.3z"/>
<g>
	<polygon fill="#FFFFFF" points="6.917,-25.667 8.317,-26.868 8.416,-26.953 8.501,-26.837 10.235,-24.487 10.033,-24.585 
		12.935,-24.89 13.103,-24.907 13.23,-24.761 16.282,-21.279 15.442,-21.174 16.643,-24.069 16.941,-24.788 17.614,-24.313 
		20.244,-22.46 19.095,-21.992 19.642,-26.189 19.856,-27.837 21.079,-26.653 23.372,-24.434 21.858,-24.051 23.154,-28.769 
		25.072,-28.202 23.599,-23.537 23.132,-22.061 22.085,-23.154 19.878,-25.458 21.315,-25.922 20.528,-21.763 20.303,-20.574 
		19.379,-21.295 16.843,-23.274 17.814,-23.518 16.349,-20.748 15.974,-20.038 15.508,-20.643 12.684,-24.311 12.979,-24.183 
		10.061,-24.129 9.923,-24.127 9.858,-24.229 8.288,-26.69 8.472,-26.66 	"/>
</g>
<circle fill="#FFFFFF" cx="15.896" cy="-27.838" r="2.838"/>
<g>
	<path fill="none" stroke="#466FB5" stroke-width="2" stroke-miterlimit="10" d="M-14.9-64.3C-16-72.7-22.1-78.7-25-78.7l0,0l0,0
		l0,0l0,0c-2.898,0-9,6-10.1,14.4c-1,7.9,4.5,13,10.1,13l0,0l0,0l0,0l0,0C-19.4-51.3-13.9-56.399-14.9-64.3z"/>
	<polygon fill="#466FB5" points="-18.1,-71 -18.773,-66.688 -21,-70.399 -21.799,-71.6 -22.1,-70.2 -22.871,-66.516 -25.6,-68.5 
		-25.8,-68.7 -26,-68.5 -29.483,-64.239 -30.6,-67.399 -29.6,-63.999 -29.6,-63.8 -29.398,-63.899 -25.82,-67.854 -22.799,-65.399 
		-22.299,-65 -22.1,-65.7 -21.375,-68.467 -19,-64.099 -18.1,-62.2 -17.6,-64.3 -16.199,-70.7 	"/>
</g>
<g>
	<path fill="none" stroke="#FFFFFF" stroke-width="2" stroke-miterlimit="10" d="M25.1-64.3C24-72.7,17.9-78.7,15-78.7l0,0l0,0l0,0
		l0,0c-2.898,0-9,6-10.1,14.4c-1,7.9,4.5,13,10.1,13l0,0l0,0l0,0l0,0C20.6-51.3,26.1-56.399,25.1-64.3z"/>
	<polygon fill="#FFFFFF" points="21.9,-71 21.227,-66.688 19,-70.399 18.201,-71.6 17.9,-70.2 17.129,-66.516 14.4,-68.5 
		14.2,-68.7 14,-68.5 10.517,-64.239 9.4,-67.399 10.4,-63.999 10.4,-63.8 10.602,-63.899 14.18,-67.854 17.201,-65.399 17.701,-65 
		17.9,-65.7 18.625,-68.467 21,-64.099 21.9,-62.2 22.4,-64.3 23.801,-70.7 	"/>
</g>
<g>
	<path fill="none" stroke="#466FB5" stroke-width="2" stroke-miterlimit="10" d="M65.1-64.3C64-72.7,57.9-78.7,55-78.7l0,0l0,0l0,0
		l0,0c-2.898,0-9,6-10.1,14.4c-1,7.9,4.5,13,10.1,13l0,0l0,0l0,0l0,0C60.6-51.3,66.1-56.399,65.1-64.3z"/>
	<polygon fill="#466FB5" points="61.9,-71 61.227,-66.688 59,-70.399 58.201,-71.6 57.9,-70.2 57.129,-66.516 54.4,-68.5 
		54.2,-68.7 54,-68.5 50.517,-64.239 49.4,-67.399 50.4,-63.999 50.4,-63.8 50.602,-63.899 54.18,-67.854 57.201,-65.399 
		57.701,-65 57.9,-65.7 58.625,-68.467 61,-64.099 61.9,-62.2 62.4,-64.3 63.801,-70.7 	"/>
</g>
<g>
	<g>
		<polygon fill="#466FB5" points="-32.333,-27.838 -29.918,-28.006 -30.065,-27.918 -29.365,-29.464 -29.236,-29.749 
			-28.932,-29.561 -27.436,-28.638 -28.022,-28.561 -26.165,-30.998 -25.964,-31.26 -25.575,-31.151 -23.84,-30.667 -24.747,-30.31 
			-24.133,-31.758 -23.802,-32.541 -23.025,-32.079 -21.817,-31.36 -22.607,-31.407 -21.098,-32.28 -20.387,-32.691 
			-19.895,-31.938 -18.539,-29.862 -19.805,-30.199 -18.341,-30.986 -17.915,-31.215 -17.461,-31.004 -15.785,-30.226 
			-16.639,-28.418 -18.305,-29.22 -17.425,-29.238 -18.906,-28.482 -19.708,-28.073 -20.172,-28.82 -21.482,-30.927 
			-20.279,-30.585 -21.901,-29.945 -22.358,-29.765 -22.691,-29.992 -23.851,-30.786 -22.744,-31.107 -23.462,-29.708 
			-23.802,-29.046 -24.369,-29.351 -25.957,-30.201 -25.367,-30.354 -27.354,-28.021 -27.639,-27.687 -27.941,-27.944 
			-29.279,-29.083 -28.846,-29.18 -29.771,-27.757 -29.831,-27.664 -29.918,-27.67 		"/>
	</g>
	<path fill="none" stroke="#466FB5" stroke-width="2" stroke-miterlimit="10" d="M-14.9-24.3C-16-32.7-22.1-38.7-25-38.7l0,0l0,0
		l0,0l0,0c-2.898,0-9,6-10.1,14.4c-1,7.899,4.5,13,10.1,13l0,0l0,0l0,0l0,0C-19.4-11.3-13.9-16.4-14.9-24.3z"/>
	<g>
		<polygon fill="#466FB5" points="-33.083,-25.667 -31.683,-26.868 -31.584,-26.953 -31.499,-26.837 -29.765,-24.487 
			-29.967,-24.585 -27.065,-24.89 -26.897,-24.907 -26.77,-24.761 -23.717,-21.279 -24.558,-21.174 -23.357,-24.069 
			-23.059,-24.788 -22.386,-24.313 -19.756,-22.46 -20.905,-21.992 -20.358,-26.189 -20.144,-27.837 -18.921,-26.653 
			-16.628,-24.434 -18.142,-24.051 -16.846,-28.769 -14.928,-28.202 -16.401,-23.537 -16.868,-22.061 -17.915,-23.154 
			-20.122,-25.458 -18.685,-25.922 -19.472,-21.763 -19.697,-20.574 -20.621,-21.295 -23.157,-23.274 -22.186,-23.518 
			-23.651,-20.748 -24.026,-20.038 -24.492,-20.643 -27.316,-24.311 -27.021,-24.183 -29.939,-24.129 -30.077,-24.127 
			-30.142,-24.229 -31.712,-26.69 -31.528,-26.66 		"/>
	</g>
	<circle fill="#466FB5" cx="-24.104" cy="-27.838" r="2.838"/>
</g>
<g>
	<circle fill="#466FB5" cx="-25" cy="15" r="5.727"/>
	<path fill="none" stroke="#466FB5" stroke-width="2" stroke-miterlimit="10" d="M-30.344,26.415
		c-3.979-2.122-8.225-8.756-7.075-14.417s6.317-6.097,9.376-8.491c4.069-3.185,10.697-1.487,14.418,5.926
		c2.742,5.463,0,6.104,0.423,10.601C-12.576,26.658-22.994,30.335-30.344,26.415z"/>
</g>
<circle fill="#FFFFFF" cx="15" cy="15" r="5.727"/>
<path fill="none" stroke="#FFFFFF" stroke-width="2" stroke-miterlimit="10" d="M9.656,26.415
	c-3.979-2.122-8.225-8.756-7.075-14.417s6.317-6.097,9.376-8.491c4.068-3.185,10.697-1.487,14.418,5.926
	c2.742,5.463,0,6.104,0.424,10.601C27.424,26.658,17.006,30.335,9.656,26.415z"/>
<circle fill="#406FC0" cx="-30.094" cy="52.508" r="2.921"/>
<circle fill="#406FC0" cx="-19.835" cy="52.508" r="2.921"/>
<path fill="none" stroke="#406FC0" stroke-width="2" stroke-miterlimit="10" d="M-33.015,57.764c1.995,3.398,4.916,5.302,8.05,5.302
	s6.056-1.904,8.05-5.302H-33.015L-33.015,57.764z"/>
<circle fill="none" stroke="#466FB5" stroke-width="2" stroke-miterlimit="10" cx="-25" cy="55" r="12.997"/>
<circle fill="#FFFFFF" cx="9.906" cy="52.509" r="2.921"/>
<circle fill="#FFFFFF" cx="20.165" cy="52.509" r="2.921"/>
<path fill="none" stroke="#FFFFFF" stroke-width="2" stroke-miterlimit="10" d="M6.985,57.764c1.995,3.398,4.916,5.303,8.051,5.303
	s6.056-1.904,8.051-5.303H6.985L6.985,57.764z"/>
<circle fill="none" stroke="#FFFFFF" stroke-width="2" stroke-miterlimit="10" cx="15" cy="55" r="12.997"/>
</svg>
