<?xml version="1.0" encoding="utf-8"?>
<!-- Generator: Adobe Illustrator 15.1.0, SVG Export Plug-In . SVG Version: 6.00 Build 0)  -->
<!DOCTYPE svg PUBLIC "-//W3C//DTD SVG 1.1//EN" "http://www.w3.org/Graphics/SVG/1.1/DTD/svg11.dtd">
<svg version="1.1" id="Layer_1" xmlns="http://www.w3.org/2000/svg" xmlns:xlink="http://www.w3.org/1999/xlink" x="0px" y="0px"
	 width="60px" height="60px" viewBox="0 0 60 60" enable-background="new 0 0 60 60" xml:space="preserve">
<g>
	<polygon fill="#26ACD2" points="47.549,10.022 56.33,10.022 54.488,8.815 56.33,7.668 49.208,7.668 46.569,8.922 	"/>
	<polygon fill="none" points="49.478,2.556 43.735,2.556 46.605,4.118 	"/>
	<polygon fill="none" points="49.478,2.556 43.735,2.556 46.605,4.118 	"/>
	<path fill="#26ACD2" d="M55.932,22.142c0.247,1.387,0.396,2.807,0.396,4.265c0,8.617-7.431,17.536-11.191,20.535
		c-8.556,7.243-21.371,6.916-29.544-1.074c-2.196-2.149-3.84-4.641-4.942-7.31c-3.258-7.885-1.744-17.292,4.6-23.777
		c5.626-5.751,13.342-7.237,20.647-6.711l10.823,6.666l1.888-1.713l-2.44-2.875l-1.487-1.75l2.506-1.051l9.206-3.867V0.553
		c0,0-20.734-0.674-27.629,0l-2.535,0.41c-6.036,0.972-11.826,3.779-16.43,8.486c-2.084,2.129-3.771,4.496-5.083,7.008
		c-5.885,11.27-4.017,25.51,5.541,34.856c11.524,11.274,29.886,11.211,41.362,0.008c3.421-3.505,5.17-6.474,6.071-9.462
		c0.348-1.371,0.63-2.77,0.785-4.205c0.009-0.12,0.021-0.233,0.03-0.351c0.069-0.738,0.098-1.487,0.113-2.241
		c0.006-0.276,0.016-0.557,0.021-0.839C58.601,29.91,57.612,25.839,55.932,22.142z M49.478,2.433l-2.872,1.563l-2.87-1.563H49.478z"
		/>
</g>
</svg>
