<?xml version="1.0" encoding="utf-8"?>
<!-- Generator: Adobe Illustrator 15.1.0, SVG Export Plug-In . SVG Version: 6.00 Build 0)  -->
<!DOCTYPE svg PUBLIC "-//W3C//DTD SVG 1.1//EN" "http://www.w3.org/Graphics/SVG/1.1/DTD/svg11.dtd">
<svg version="1.1" xmlns="http://www.w3.org/2000/svg" xmlns:xlink="http://www.w3.org/1999/xlink" x="0px" y="0px" width="30px"
	 height="30px" viewBox="0 0 30 30" enable-background="new 0 0 30 30" xml:space="preserve">
<g id="Layer_2">
</g>
<g id="Layer_1">
	<path fill="#FFFFFF" d="M26.045,6.32h-4.74V4.658c0-1.15-0.932-2.082-2.082-2.082h-8.446c-1.15,0-2.082,0.932-2.082,2.082V6.32
		H3.953c-0.892,0-1.617,0.724-1.617,1.618c0,0.892,0.724,1.617,1.617,1.617h1.689L7.33,24.891c0,1.4,1.136,2.533,2.533,2.533h10.274
		c1.396,0,2.53-1.133,2.53-2.533l1.688-15.335h1.689c0.895,0,1.619-0.724,1.619-1.617C27.664,7.044,26.939,6.319,26.045,6.32z
		 M13.044,23.186c0,0.553-0.448,1-1,1s-1-0.447-1-1v-9.548c0-0.552,0.448-1,1-1s1,0.448,1,1V23.186z M19.096,23.186
		c0,0.553-0.447,1-1,1s-1-0.447-1-1v-9.548c0-0.552,0.447-1,1-1s1,0.448,1,1V23.186z"/>
</g>
</svg>
