<?xml version="1.0" encoding="utf-8"?>
<!-- Generator: Adobe Illustrator 15.1.0, SVG Export Plug-In . SVG Version: 6.00 Build 0)  -->
<!DOCTYPE svg PUBLIC "-//W3C//DTD SVG 1.1//EN" "http://www.w3.org/Graphics/SVG/1.1/DTD/svg11.dtd">
<svg version="1.1" xmlns="http://www.w3.org/2000/svg" xmlns:xlink="http://www.w3.org/1999/xlink" x="0px" y="0px" width="30px"
	 height="30px" viewBox="0 0 30 30" enable-background="new 0 0 30 30" xml:space="preserve">
<g id="background" display="none">
	<linearGradient id="SVGID_1_" gradientUnits="userSpaceOnUse" x1="-80" y1="15" x2="110" y2="15">
		<stop  offset="0" style="stop-color:#25ACD1"/>
		<stop  offset="1" style="stop-color:#466FB6"/>
	</linearGradient>
	<rect x="-80" display="inline" fill="url(#SVGID_1_)" width="190" height="30"/>
	<linearGradient id="SVGID_2_" gradientUnits="userSpaceOnUse" x1="-80" y1="53" x2="110" y2="53">
		<stop  offset="0" style="stop-color:#25ACD1"/>
		<stop  offset="1" style="stop-color:#466FB6"/>
	</linearGradient>
	<rect x="-80" y="38" display="inline" fill="url(#SVGID_2_)" width="190" height="30"/>
</g>
<g id="tag">
	<g>
		<g>
			<path fill="#FFFFFF" d="M83.823,3.824c4.763,0.425,9.666,1.03,10.903,1.462l11.464,11.463c0.146,0.146,0.177,0.312,0.177,0.425
				c0,0.112-0.031,0.276-0.18,0.425l-8.591,8.591c-0.145,0.146-0.31,0.176-0.423,0.176s-0.278-0.03-0.426-0.179L85.287,14.725
				C84.854,13.488,84.249,8.585,83.823,3.824 M81.634,1.634c0,0,1.028,13.297,2.046,14.313l11.654,11.654
				c0.508,0.51,1.174,0.765,1.84,0.765s1.332-0.255,1.84-0.765l8.588-8.588c1.021-1.015,1.021-2.664,0-3.681L95.947,3.679
				C94.93,2.662,81.634,1.634,81.634,1.634L81.634,1.634z"/>
		</g>
		<circle fill="#FFFFFF" cx="87.613" cy="7.612" r="1.75"/>
	</g>
	<g>
		<path fill="#FFFFFF" d="M107.602,53.737L95.947,42.084c-1.018-1.017-14.313-2.045-14.313-2.045s1.028,13.297,2.046,14.313
			l11.654,11.654c1.016,1.02,2.664,1.02,3.68,0l8.588-8.588C108.622,56.403,108.622,54.754,107.602,53.737z M87.613,47.768
			c-0.967,0-1.75-0.783-1.75-1.75s0.783-1.75,1.75-1.75s1.75,0.783,1.75,1.75S88.58,47.768,87.613,47.768z"/>
	</g>
</g>
<g id="friends">
	<g>
		<path fill="#FFFFFF" d="M55.036,40.004c-7.178,0-12.997,5.819-12.997,12.997c0,7.177,5.819,12.995,12.997,12.995
			s12.997-5.818,12.997-12.995C68.033,45.823,62.214,40.004,55.036,40.004z M50.39,48.342c1.473,0,2.666,1.193,2.666,2.666
			s-1.193,2.667-2.666,2.667s-2.667-1.194-2.667-2.667S48.917,48.342,50.39,48.342z M55.071,60.479c-2.861,0-5.527-1.738-7.349-4.84
			h14.698C60.6,58.74,57.933,60.479,55.071,60.479z M59.753,53.675c-1.472,0-2.665-1.194-2.665-2.667s1.193-2.666,2.665-2.666
			c1.473,0,2.668,1.193,2.668,2.666S61.226,53.675,59.753,53.675z"/>
	</g>
	<g>
		<circle fill="#FFFFFF" cx="50.354" cy="13.008" r="2.667"/>
		<circle fill="#FFFFFF" cx="59.717" cy="13.008" r="2.667"/>
		<path fill="#FFFFFF" d="M47.687,17.639c1.821,3.102,4.487,4.84,7.349,4.84s5.528-1.738,7.35-4.84H47.687L47.687,17.639z"/>
		<g>
			<path fill="#FFFFFF" d="M55,4.003c6.063,0,10.997,4.933,10.997,10.997c0,6.063-4.934,10.996-10.997,10.996
				S44.003,21.063,44.003,15C44.003,8.937,48.937,4.003,55,4.003 M55,2.003c-7.178,0-12.997,5.819-12.997,12.997
				c0,7.177,5.819,12.996,12.997,12.996S67.997,22.178,67.997,15C67.997,7.823,62.178,2.003,55,2.003L55,2.003z"/>
		</g>
	</g>
</g>
<g id="seen">
	<g>
		<circle fill="#FFFFFF" cx="-24.693" cy="15.674" r="5.727"/>
		<g>
			<path fill="#FFFFFF" d="M-23.295,4.029L-23.295,4.029c3.295,0,6.521,2.508,8.63,6.709c1.438,2.864,1.158,3.939,0.735,5.567
				c-0.311,1.193-0.697,2.679-0.494,4.83c0.114,1.203-0.281,2.311-1.174,3.291c-1.624,1.784-4.626,2.893-7.836,2.893
				c-2.16,0-4.241-0.502-6.019-1.45c-3.241-1.729-7.444-7.772-6.395-12.942c0.656-3.228,2.908-4.342,5.515-5.631
				c1.218-0.603,2.478-1.225,3.582-2.089C-25.767,4.436-24.571,4.029-23.295,4.029 M-23.295,2.029c-1.711,0-3.335,0.543-4.688,1.603
				c-3.205,2.509-8.619,2.965-9.824,8.896c-1.205,5.932,3.244,12.882,7.413,15.105c2.175,1.16,4.605,1.686,6.96,1.686
				c5.982,0,11.471-3.392,11.001-8.371c-0.444-4.712,2.429-5.383-0.444-11.107C-15.538,4.541-19.618,2.029-23.295,2.029
				L-23.295,2.029z"/>
		</g>
	</g>
	<path fill="#FFFFFF" d="M-13.42,47.838c-3.721-7.413-10.35-9.111-14.418-5.926c-3.059,2.395-8.226,2.83-9.376,8.49
		c-1.15,5.662,3.096,12.295,7.075,14.418c7.35,3.92,17.768,0.242,17.143-6.381C-13.42,53.941-10.678,53.301-13.42,47.838z
		 M-24.795,59.133c-3.163,0-5.727-2.564-5.727-5.729s2.564-5.727,5.727-5.727s5.727,2.563,5.727,5.727S-21.632,59.133-24.795,59.133
		z"/>
</g>
<g id="watching">
	<g>
		<g>
			<g>
				<path fill="#FFFFFF" d="M24.213-23.146c0.896,0,1.625,0.889,1.625,1.982v14.828c0,1.093-0.729,1.982-1.625,1.982H5.787
					c-0.896,0-1.625-0.89-1.625-1.982v-14.828c0-1.093,0.729-1.982,1.625-1.982H24.213 M24.213-25.146H5.787
					c-2.002,0-3.625,1.783-3.625,3.982v14.828c0,2.199,1.623,3.982,3.625,3.982h18.426c2.002,0,3.625-1.783,3.625-3.982v-14.828
					C27.838-23.363,26.215-25.146,24.213-25.146L24.213-25.146z"/>
			</g>
		</g>
		<polygon fill="#FFFFFF" points="21.319,-13.75 16,-10.678 10.68,-7.607 10.68,-13.75 10.68,-19.893 16,-16.821 		"/>
	</g>
	<path fill="#FFFFFF" d="M24.375,4H5.949C3.947,4,2,5.586,2,7.785v14.828C2,24.813,3.947,26,5.949,26h18.426
		C26.377,26,28,24.813,28,22.613V7.785C28,5.586,26.377,4,24.375,4z M16.241,18.271L11,21.342v-6.143V9.057l5.241,3.071l5.319,3.071
		L16.241,18.271z"/>
</g>
<g id="watchlist_1_">
	<g>
		<g>
			<path fill="#FFFFFF" d="M-65,2.845c1.761,0,7.538,5.244,8.598,13.338c0.417,3.289-0.398,6.283-2.294,8.434
				c-1.645,1.867-3.942,2.938-6.303,2.938s-4.659-1.07-6.303-2.938c-1.896-2.15-2.711-5.145-2.296-8.424
				C-72.538,8.089-66.761,2.845-65,2.845 M-65,0.845c-3.037,0-9.43,6.287-10.582,15.088C-76.63,24.211-70.867,29.555-65,29.555
				s11.63-5.344,10.582-13.622C-55.57,7.132-61.961,0.845-65,0.845L-65,0.845z"/>
		</g>
		<polygon fill="#FFFFFF" points="-58.688,9.2 -59.362,13.513 -61.589,9.801 -62.388,8.601 -62.688,10 -63.46,13.685 -66.188,11.7 
			-66.389,11.5 -66.589,11.7 -70.072,15.961 -71.188,12.801 -70.188,16.201 -70.188,16.4 -69.987,16.301 -66.409,12.346 
			-63.388,14.801 -62.888,15.2 -62.688,14.5 -61.964,11.733 -59.589,16.102 -58.688,18 -58.188,15.9 -56.788,9.5 		"/>
	</g>
	<path fill="#FFFFFF" d="M-54.9,53.7c-0.174-1.326-0.482-2.583-0.873-3.775L-56.6,53.7l-0.5,2.1l-0.9-1.898l-2.375-4.368L-61.1,52.3
		l-0.199,0.7l-0.5-0.399l-3.021-2.455l-3.778,3.955L-69,54.2v-0.199l-0.8-3.4l1.216,3.16l3.534-4.261l0.225-0.2l0.212,0.2
		l2.735,1.984l0.775-3.685L-60.8,46.4l0.799,1.2l2.227,3.712L-57.1,47l0.139,0.021C-59.312,42.303-62.951,39.3-65,39.3
		c-2.898,0-9,6-10.1,14.4c-1,7.9,4.5,13,10.1,13S-53.9,61.601-54.9,53.7z"/>
</g>
</svg>
