<?xml version="1.0" encoding="utf-8"?>
<!-- Generator: Adobe Illustrator 15.1.0, SVG Export Plug-In . SVG Version: 6.00 Build 0)  -->
<!DOCTYPE svg PUBLIC "-//W3C//DTD SVG 1.1//EN" "http://www.w3.org/Graphics/SVG/1.1/DTD/svg11.dtd">
<svg version="1.1" xmlns="http://www.w3.org/2000/svg" xmlns:xlink="http://www.w3.org/1999/xlink" x="0px" y="0px" width="30px"
	 height="30px" viewBox="0 0 30 30" enable-background="new 0 0 30 30" xml:space="preserve">
<g id="background" display="none">
	<linearGradient id="SVGID_1_" gradientUnits="userSpaceOnUse" x1="-160" y1="15" x2="30" y2="15">
		<stop  offset="0" style="stop-color:#25ACD1"/>
		<stop  offset="1" style="stop-color:#466FB6"/>
	</linearGradient>
	<rect x="-160" display="inline" fill="url(#SVGID_1_)" width="190" height="30"/>
	<linearGradient id="SVGID_2_" gradientUnits="userSpaceOnUse" x1="-160" y1="53" x2="30" y2="53">
		<stop  offset="0" style="stop-color:#25ACD1"/>
		<stop  offset="1" style="stop-color:#466FB6"/>
	</linearGradient>
	<rect x="-160" y="38" display="inline" fill="url(#SVGID_2_)" width="190" height="30"/>
</g>
<g id="tag">
	<g>
		<g>
			<path fill="#FFFFFF" d="M-28.743-24.542c4.763,0.425,9.666,1.03,10.903,1.462l11.464,11.463c0.146,0.146,0.177,0.312,0.177,0.425
				c0,0.112-0.031,0.276-0.18,0.425l-8.591,8.591C-15.114-2.03-15.279-2-15.393-2s-0.278-0.03-0.426-0.179l-11.461-11.462
				C-27.712-14.877-28.317-19.78-28.743-24.542 M-30.933-26.731c0,0,1.028,13.297,2.046,14.313l11.654,11.654
				C-16.725-0.255-16.059,0-15.393,0s1.332-0.255,1.84-0.765l8.588-8.588c1.021-1.015,1.021-2.664,0-3.681l-11.654-11.653
				C-17.637-25.703-30.933-26.731-30.933-26.731L-30.933-26.731z"/>
		</g>
		<circle fill="#FFFFFF" cx="-24.953" cy="-20.753" r="1.75"/>
	</g>
	<g>
		<path fill="#FFFFFF" d="M27.602,15.333L15.947,3.679C14.93,2.663,1.634,1.634,1.634,1.634S2.662,14.931,3.68,15.947l11.654,11.655
			c1.016,1.02,2.664,1.02,3.68,0l8.588-8.588C28.622,17.998,28.622,16.35,27.602,15.333z M7.613,9.363
			c-0.967,0-1.75-0.783-1.75-1.75s0.783-1.75,1.75-1.75s1.75,0.783,1.75,1.75S8.58,9.363,7.613,9.363z"/>
	</g>
</g>
<g id="friends">
	<g>
		<path fill="#FFFFFF" d="M-26.967,38.004c-7.178,0-12.997,5.819-12.997,12.997c0,7.177,5.819,12.995,12.997,12.995
			s12.997-5.818,12.997-12.995C-13.97,43.823-19.789,38.004-26.967,38.004z M-31.613,46.342c1.473,0,2.666,1.193,2.666,2.666
			s-1.193,2.667-2.666,2.667s-2.667-1.194-2.667-2.667S-33.086,46.342-31.613,46.342z M-26.932,58.479
			c-2.861,0-5.527-1.738-7.349-4.84h14.698C-21.403,56.74-24.07,58.479-26.932,58.479z M-22.25,51.675
			c-1.472,0-2.665-1.194-2.665-2.667s1.193-2.666,2.665-2.666c1.473,0,2.668,1.193,2.668,2.666S-20.777,51.675-22.25,51.675z"/>
	</g>
	<g>
		<circle fill="#FFFFFF" cx="-29.598" cy="11.85" r="2.667"/>
		<circle fill="#FFFFFF" cx="-20.234" cy="11.85" r="2.667"/>
		<path fill="#FFFFFF" d="M-32.265,16.48c1.821,3.102,4.487,4.84,7.349,4.84s5.528-1.738,7.35-4.84H-32.265L-32.265,16.48z"/>
		<g>
			<path fill="#FFFFFF" d="M-24.951,2.845c6.063,0,10.997,4.933,10.997,10.997c0,6.062-4.934,10.996-10.997,10.996
				s-10.997-4.934-10.997-10.996C-35.948,7.778-31.015,2.845-24.951,2.845 M-24.951,0.845c-7.178,0-12.997,5.819-12.997,12.997
				c0,7.177,5.819,12.996,12.997,12.996s12.997-5.818,12.997-12.996C-11.954,6.665-17.773,0.845-24.951,0.845L-24.951,0.845z"/>
		</g>
	</g>
</g>
<g id="seen">
	<g>
		<circle fill="#FFFFFF" cx="-104.693" cy="15.674" r="5.727"/>
		<g>
			<path fill="#FFFFFF" d="M-103.295,4.029L-103.295,4.029c3.295,0,6.521,2.508,8.63,6.709c1.438,2.864,1.158,3.939,0.735,5.567
				c-0.311,1.193-0.697,2.679-0.494,4.83c0.114,1.203-0.281,2.311-1.174,3.291c-1.624,1.784-4.626,2.893-7.836,2.893
				c-2.16,0-4.241-0.502-6.019-1.45c-3.241-1.729-7.444-7.772-6.395-12.942c0.656-3.228,2.908-4.342,5.515-5.631
				c1.218-0.603,2.478-1.225,3.582-2.089C-105.767,4.436-104.571,4.029-103.295,4.029 M-103.295,2.029
				c-1.711,0-3.335,0.543-4.688,1.603c-3.205,2.509-8.619,2.965-9.824,8.896c-1.205,5.932,3.244,12.882,7.413,15.105
				c2.175,1.16,4.605,1.686,6.96,1.686c5.982,0,11.471-3.392,11.001-8.371c-0.444-4.712,2.429-5.383-0.444-11.107
				C-95.538,4.541-99.618,2.029-103.295,2.029L-103.295,2.029z"/>
		</g>
	</g>
	<path fill="#FFFFFF" d="M-93.42,47.838c-3.721-7.413-10.35-9.111-14.418-5.926c-3.059,2.395-8.226,2.83-9.376,8.49
		c-1.15,5.662,3.096,12.295,7.075,14.418c7.35,3.92,17.768,0.242,17.143-6.381C-93.42,53.941-90.678,53.301-93.42,47.838z
		 M-104.795,59.133c-3.163,0-5.727-2.564-5.727-5.729s2.564-5.727,5.727-5.727s5.727,2.563,5.727,5.727
		S-101.632,59.133-104.795,59.133z"/>
</g>
<g id="watching">
	<g>
		<g>
			<g>
				<path fill="#FFFFFF" d="M-54.787,6.277c0.896,0,1.625,0.889,1.625,1.982v14.828c0,1.093-0.729,1.982-1.625,1.982h-18.426
					c-0.896,0-1.625-0.89-1.625-1.982V8.26c0-1.093,0.729-1.982,1.625-1.982H-54.787 M-54.787,4.277h-18.426
					c-2.002,0-3.625,1.783-3.625,3.982v14.828c0,2.199,1.623,3.982,3.625,3.982h18.426c2.002,0,3.625-1.783,3.625-3.982V8.26
					C-51.162,6.061-52.785,4.277-54.787,4.277L-54.787,4.277z"/>
			</g>
		</g>
		<polygon fill="#FFFFFF" points="-57.681,15.674 -63,18.746 -68.32,21.816 -68.32,15.674 -68.32,9.531 -63,12.603 		"/>
	</g>
	<path fill="#FFFFFF" d="M-54.625,39h-18.426C-75.053,39-77,40.886-77,43.085v14.828C-77,60.112-75.053,61-73.051,61h18.426
		C-52.623,61-51,60.112-51,57.913V43.085C-51,40.886-52.623,39-54.625,39z M-62.759,53.571L-68,56.642v-6.143v-6.143l5.241,3.071
		l5.319,3.071L-62.759,53.571z"/>
</g>
<g id="watchlist_1_">
	<g>
		<g>
			<path fill="#FFFFFF" d="M-145,2.845c1.761,0,7.538,5.244,8.598,13.338c0.417,3.289-0.398,6.283-2.294,8.434
				c-1.645,1.867-3.942,2.938-6.303,2.938s-4.659-1.07-6.303-2.938c-1.896-2.15-2.711-5.145-2.296-8.424
				C-152.538,8.089-146.761,2.845-145,2.845 M-145,0.845c-3.037,0-9.43,6.287-10.582,15.088
				c-1.048,8.278,4.715,13.622,10.582,13.622s11.63-5.344,10.582-13.622C-135.57,7.132-141.961,0.845-145,0.845L-145,0.845z"/>
		</g>
		<polygon fill="#FFFFFF" points="-138.688,9.2 -139.362,13.513 -141.589,9.801 -142.388,8.601 -142.688,10 -143.46,13.685 
			-146.188,11.7 -146.389,11.5 -146.589,11.7 -150.072,15.961 -151.188,12.801 -150.188,16.201 -150.188,16.4 -149.987,16.301 
			-146.409,12.346 -143.388,14.801 -142.888,15.2 -142.688,14.5 -141.964,11.733 -139.589,16.102 -138.688,18 -138.188,15.9 
			-136.788,9.5 		"/>
	</g>
	<path fill="#FFFFFF" d="M-134.9,53.7c-0.174-1.326-0.482-2.583-0.873-3.775L-136.6,53.7l-0.5,2.1l-0.9-1.898l-2.375-4.368
		L-141.1,52.3l-0.199,0.7l-0.5-0.399l-3.021-2.455l-3.778,3.955L-149,54.2v-0.199l-0.8-3.4l1.216,3.16l3.534-4.261l0.225-0.2
		l0.212,0.2l2.735,1.984l0.775-3.685l0.302-1.399l0.799,1.2l2.227,3.712L-137.1,47l0.139,0.021c-2.351-4.719-5.99-7.722-8.039-7.722
		c-2.898,0-9,6-10.1,14.4c-1,7.9,4.5,13,10.1,13S-133.9,61.601-134.9,53.7z"/>
</g>
</svg>
