<?xml version="1.0" encoding="utf-8"?>
<!-- Generator: Adobe Illustrator 15.1.0, SVG Export Plug-In . SVG Version: 6.00 Build 0)  -->
<!DOCTYPE svg PUBLIC "-//W3C//DTD SVG 1.1//EN" "http://www.w3.org/Graphics/SVG/1.1/DTD/svg11.dtd">
<svg version="1.1" xmlns="http://www.w3.org/2000/svg" xmlns:xlink="http://www.w3.org/1999/xlink" x="0px" y="0px" width="30px"
	 height="30px" viewBox="0 0 30 30" enable-background="new 0 0 30 30" xml:space="preserve">
<g id="Layer_2">
</g>
<g id="Layer_1">
	<g>
		<path fill="#FFFFFF" d="M6.642,10.572L8.33,25.906c0,1.4,1.136,2.533,2.533,2.533h10.274c1.396,0,2.53-1.133,2.53-2.533
			l1.688-15.334H6.642z M14.044,24.201c0,0.553-0.448,1-1,1s-1-0.447-1-1v-9.547c0-0.552,0.448-1,1-1s1,0.448,1,1V24.201z
			 M20.096,24.201c0,0.553-0.447,1-1,1s-1-0.447-1-1v-9.547c0-0.552,0.447-1,1-1s1,0.448,1,1V24.201z"/>
		<path fill="#FFFFFF" d="M25.265,3.506l-4.582,1.211l-0.426-1.606c-0.293-1.112-1.432-1.775-2.543-1.481L9.547,3.788
			C8.436,4.082,7.772,5.22,8.066,6.333l0.425,1.606L3.907,9.15c-0.862,0.228-1.378,1.113-1.15,1.978
			c0.228,0.863,1.113,1.378,1.977,1.15l21.359-5.644c0.863-0.229,1.379-1.114,1.15-1.978C27.017,3.792,26.13,3.276,25.265,3.506z"/>
	</g>
</g>
</svg>
