<?xml version="1.0" encoding="utf-8"?>
<!-- Generator: Adobe Illustrator 15.1.0, SVG Export Plug-In . SVG Version: 6.00 Build 0)  -->
<!DOCTYPE svg PUBLIC "-//W3C//DTD SVG 1.1//EN" "http://www.w3.org/Graphics/SVG/1.1/DTD/svg11.dtd">
<svg version="1.1" xmlns="http://www.w3.org/2000/svg" xmlns:xlink="http://www.w3.org/1999/xlink" x="0px" y="0px" width="30px"
	 height="30px" viewBox="0 0 30 30" enable-background="new 0 0 30 30" xml:space="preserve">
<g id="background" display="none">
	<linearGradient id="SVGID_1_" gradientUnits="userSpaceOnUse" x1="0" y1="15" x2="190" y2="15">
		<stop  offset="0" style="stop-color:#25ACD1"/>
		<stop  offset="1" style="stop-color:#466FB6"/>
	</linearGradient>
	<rect display="inline" fill="url(#SVGID_1_)" width="190" height="30"/>
	<linearGradient id="SVGID_2_" gradientUnits="userSpaceOnUse" x1="0" y1="53" x2="190" y2="53">
		<stop  offset="0" style="stop-color:#25ACD1"/>
		<stop  offset="1" style="stop-color:#466FB6"/>
	</linearGradient>
	<rect y="38" display="inline" fill="url(#SVGID_2_)" width="190" height="30"/>
</g>
<g id="tag">
	<g>
		<g>
			<path fill="#FFFFFF" d="M163.823,3.824c4.763,0.425,9.666,1.03,10.903,1.462l11.464,11.463c0.146,0.146,0.177,0.312,0.177,0.425
				c0,0.112-0.031,0.276-0.18,0.425l-8.591,8.591c-0.145,0.146-0.31,0.176-0.423,0.176s-0.278-0.03-0.426-0.179l-11.461-11.462
				C164.854,13.488,164.249,8.585,163.823,3.824 M161.634,1.634c0,0,1.028,13.297,2.046,14.313l11.654,11.654
				c0.508,0.51,1.174,0.765,1.84,0.765s1.332-0.255,1.84-0.765l8.588-8.588c1.021-1.015,1.021-2.664,0-3.681L175.947,3.679
				C174.93,2.662,161.634,1.634,161.634,1.634L161.634,1.634z"/>
		</g>
		<circle fill="#FFFFFF" cx="167.613" cy="7.612" r="1.75"/>
	</g>
	<g>
		<path fill="#FFFFFF" d="M187.602,53.737l-11.654-11.653c-1.018-1.017-14.313-2.045-14.313-2.045s1.028,13.297,2.046,14.313
			l11.654,11.654c1.016,1.02,2.664,1.02,3.68,0l8.588-8.588C188.622,56.403,188.622,54.754,187.602,53.737z M167.613,47.768
			c-0.967,0-1.75-0.783-1.75-1.75s0.783-1.75,1.75-1.75s1.75,0.783,1.75,1.75S168.58,47.768,167.613,47.768z"/>
	</g>
</g>
<g id="friends">
	<g>
		<path fill="#FFFFFF" d="M135.036,40.004c-7.178,0-12.997,5.819-12.997,12.997c0,7.177,5.819,12.995,12.997,12.995
			s12.997-5.818,12.997-12.995C148.033,45.823,142.214,40.004,135.036,40.004z M130.39,48.342c1.473,0,2.666,1.193,2.666,2.666
			s-1.193,2.667-2.666,2.667s-2.667-1.194-2.667-2.667S128.917,48.342,130.39,48.342z M135.071,60.479
			c-2.861,0-5.527-1.738-7.349-4.84h14.698C140.6,58.74,137.933,60.479,135.071,60.479z M139.753,53.675
			c-1.472,0-2.665-1.194-2.665-2.667s1.193-2.666,2.665-2.666c1.473,0,2.668,1.193,2.668,2.666S141.226,53.675,139.753,53.675z"/>
	</g>
	<g>
		<circle fill="#FFFFFF" cx="130.354" cy="13.008" r="2.667"/>
		<circle fill="#FFFFFF" cx="139.717" cy="13.008" r="2.667"/>
		<path fill="#FFFFFF" d="M127.687,17.639c1.821,3.102,4.487,4.84,7.349,4.84s5.528-1.738,7.35-4.84H127.687L127.687,17.639z"/>
		<g>
			<path fill="#FFFFFF" d="M135,4.003c6.063,0,10.997,4.933,10.997,10.997c0,6.063-4.934,10.996-10.997,10.996
				S124.003,21.063,124.003,15C124.003,8.937,128.937,4.003,135,4.003 M135,2.003c-7.178,0-12.997,5.819-12.997,12.997
				c0,7.177,5.819,12.996,12.997,12.996S147.997,22.178,147.997,15C147.997,7.823,142.178,2.003,135,2.003L135,2.003z"/>
		</g>
	</g>
</g>
<g id="seen">
	<g>
		<circle fill="#FFFFFF" cx="56" cy="15" r="5.727"/>
		<g>
			<path fill="#FFFFFF" d="M57.399,3.355L57.399,3.355c3.295,0,6.521,2.508,8.63,6.709c1.438,2.864,1.158,3.939,0.735,5.567
				c-0.311,1.193-0.697,2.679-0.494,4.83c0.114,1.203-0.281,2.311-1.174,3.291c-1.624,1.784-4.626,2.893-7.836,2.893
				c-2.16,0-4.241-0.502-6.019-1.45c-3.241-1.729-7.444-7.772-6.395-12.942c0.656-3.228,2.908-4.342,5.515-5.631
				c1.218-0.603,2.478-1.225,3.582-2.089C54.927,3.762,56.123,3.355,57.399,3.355 M57.398,1.355c-1.711,0-3.335,0.543-4.688,1.603
				c-3.205,2.509-8.619,2.965-9.824,8.896c-1.205,5.932,3.244,12.882,7.413,15.105c2.175,1.16,4.605,1.686,6.96,1.686
				c5.982,0,11.471-3.392,11.001-8.371c-0.444-4.711,2.429-5.383-0.444-11.107C65.156,3.867,61.076,1.355,57.398,1.355L57.398,1.355
				z"/>
		</g>
	</g>
	<path fill="#FFFFFF" d="M66.375,47.838c-3.721-7.413-10.35-9.111-14.418-5.926c-3.059,2.395-8.226,2.83-9.376,8.49
		c-1.15,5.662,3.096,12.295,7.075,14.418c7.35,3.92,17.768,0.242,17.143-6.381C66.375,53.941,69.117,53.301,66.375,47.838z
		 M55,59.133c-3.163,0-5.727-2.564-5.727-5.729s2.564-5.727,5.727-5.727s5.727,2.563,5.727,5.727S58.163,59.133,55,59.133z"/>
</g>
<g id="watching">
	<g>
		<g>
			<path fill="#FFFFFF" d="M104.213,5.604c0.896,0,1.625,0.889,1.625,1.982v14.828c0,1.093-0.729,1.982-1.625,1.982H85.787
				c-0.896,0-1.625-0.89-1.625-1.982V7.586c0-1.093,0.729-1.982,1.625-1.982H104.213 M104.213,3.604H85.787
				c-2.002,0-3.625,1.783-3.625,3.982v14.828c0,2.199,1.623,3.982,3.625,3.982h18.426c2.002,0,3.625-1.783,3.625-3.982V7.586
				C107.838,5.387,106.215,3.604,104.213,3.604L104.213,3.604z"/>
		</g>
	</g>
	<polygon fill="#FFFFFF" points="101.319,15 96,18.072 90.68,21.143 90.68,15 90.68,8.857 96,11.929 	"/>
	<path fill="#FFFFFF" d="M105.375,42H86.949C84.947,42,83,43.387,83,45.586v14.828C83,62.613,84.947,64,86.949,64h18.426
		c2.002,0,3.625-1.387,3.625-3.586V45.586C109,43.387,107.377,42,105.375,42z M97.241,56.072L92,59.143V53v-6.143l5.241,3.071
		L102.561,53L97.241,56.072z"/>
</g>
<g id="watchlist_1_">
	<g>
		<g>
			<path fill="#FFFFFF" d="M15,2.646c1.761,0,7.538,5.244,8.598,13.339c0.417,3.288-0.398,6.283-2.294,8.434
				c-1.645,1.866-3.942,2.937-6.303,2.937s-4.659-1.07-6.303-2.937c-1.896-2.15-2.711-5.146-2.296-8.425
				C7.462,7.889,13.239,2.646,15,2.646 M15,0.646c-3.037,0-9.43,6.287-10.582,15.088C3.37,24.012,9.133,29.354,15,29.354
				s11.63-5.343,10.582-13.621C24.43,6.932,18.039,0.646,15,0.646L15,0.646z"/>
		</g>
		<polygon fill="#FFFFFF" points="21.312,9 20.638,13.313 18.411,9.601 17.612,8.401 17.312,9.8 16.54,13.485 13.812,11.5 
			13.611,11.3 13.411,11.5 9.928,15.761 8.812,12.601 9.812,16.002 9.812,16.201 10.013,16.102 13.591,12.146 16.612,14.601 
			17.112,15 17.312,14.3 18.036,11.534 20.411,15.902 21.312,17.801 21.812,15.701 23.212,9.3 		"/>
	</g>
	<path fill="#FFFFFF" d="M25.1,54.104c-0.174-1.326-0.482-2.583-0.873-3.775L23.4,54.104l-0.5,2.1L22,54.306l-2.375-4.368
		L18.9,52.704l-0.199,0.7l-0.5-0.399L15.18,50.55l-3.778,3.955L11,54.604v-0.199l-0.8-3.4l1.216,3.16l3.534-4.261l0.225-0.2
		l0.212,0.2l2.735,1.984l0.775-3.685l0.302-1.399l0.799,1.2l2.227,3.712l0.674-4.313l0.139,0.021
		c-2.351-4.719-5.99-7.722-8.039-7.722c-2.898,0-9,6-10.1,14.4c-1,7.9,4.5,13,10.1,13S26.1,62.005,25.1,54.104z"/>
</g>
</svg>
