<?xml version="1.0" encoding="utf-8"?>
<!-- Generator: Adobe Illustrator 15.1.0, SVG Export Plug-In . SVG Version: 6.00 Build 0)  -->
<!DOCTYPE svg PUBLIC "-//W3C//DTD SVG 1.1//EN" "http://www.w3.org/Graphics/SVG/1.1/DTD/svg11.dtd">
<svg version="1.1" xmlns="http://www.w3.org/2000/svg" xmlns:xlink="http://www.w3.org/1999/xlink" x="0px" y="0px" width="30px"
	 height="30px" viewBox="0 0 30 30" enable-background="new 0 0 30 30" xml:space="preserve">
<g id="background" display="none">
	<linearGradient id="SVGID_1_" gradientUnits="userSpaceOnUse" x1="-40" y1="15" x2="150" y2="15">
		<stop  offset="0" style="stop-color:#25ACD1"/>
		<stop  offset="1" style="stop-color:#466FB6"/>
	</linearGradient>
	<rect x="-40" display="inline" fill="url(#SVGID_1_)" width="190" height="30"/>
	<linearGradient id="SVGID_2_" gradientUnits="userSpaceOnUse" x1="-40" y1="53" x2="150" y2="53">
		<stop  offset="0" style="stop-color:#25ACD1"/>
		<stop  offset="1" style="stop-color:#466FB6"/>
	</linearGradient>
	<rect x="-40" y="38" display="inline" fill="url(#SVGID_2_)" width="190" height="30"/>
</g>
<g id="tag">
	<g>
		<g>
			<path fill="#FFFFFF" d="M123.823,3.824c4.763,0.425,9.666,1.03,10.903,1.462l11.464,11.463c0.146,0.146,0.177,0.312,0.177,0.425
				c0,0.112-0.031,0.276-0.18,0.425l-8.591,8.591c-0.145,0.146-0.31,0.176-0.423,0.176s-0.278-0.03-0.426-0.179l-11.461-11.462
				C124.854,13.488,124.249,8.585,123.823,3.824 M121.634,1.634c0,0,1.028,13.297,2.046,14.313l11.654,11.654
				c0.508,0.51,1.174,0.765,1.84,0.765s1.332-0.255,1.84-0.765l8.588-8.588c1.021-1.015,1.021-2.664,0-3.681L135.947,3.679
				C134.93,2.662,121.634,1.634,121.634,1.634L121.634,1.634z"/>
		</g>
		<circle fill="#FFFFFF" cx="127.613" cy="7.612" r="1.75"/>
	</g>
	<g>
		<path fill="#FFFFFF" d="M147.602,53.737l-11.654-11.653c-1.018-1.017-14.313-2.045-14.313-2.045s1.028,13.297,2.046,14.313
			l11.654,11.654c1.016,1.02,2.664,1.02,3.68,0l8.588-8.588C148.622,56.403,148.622,54.754,147.602,53.737z M127.613,47.768
			c-0.967,0-1.75-0.783-1.75-1.75s0.783-1.75,1.75-1.75s1.75,0.783,1.75,1.75S128.58,47.768,127.613,47.768z"/>
	</g>
</g>
<g id="friends">
	<g>
		<path fill="#FFFFFF" d="M95.036,40.004c-7.178,0-12.997,5.819-12.997,12.997c0,7.177,5.819,12.995,12.997,12.995
			s12.997-5.818,12.997-12.995C108.033,45.823,102.214,40.004,95.036,40.004z M90.39,48.342c1.473,0,2.666,1.193,2.666,2.666
			s-1.193,2.667-2.666,2.667s-2.667-1.194-2.667-2.667S88.917,48.342,90.39,48.342z M95.071,60.479c-2.861,0-5.527-1.738-7.349-4.84
			h14.698C100.6,58.74,97.933,60.479,95.071,60.479z M99.753,53.675c-1.472,0-2.665-1.194-2.665-2.667s1.193-2.666,2.665-2.666
			c1.473,0,2.668,1.193,2.668,2.666S101.226,53.675,99.753,53.675z"/>
	</g>
	<g>
		<circle fill="#FFFFFF" cx="90.354" cy="13.008" r="2.667"/>
		<circle fill="#FFFFFF" cx="99.717" cy="13.008" r="2.667"/>
		<path fill="#FFFFFF" d="M87.687,17.639c1.821,3.102,4.487,4.84,7.349,4.84s5.528-1.738,7.35-4.84H87.687L87.687,17.639z"/>
		<g>
			<path fill="#FFFFFF" d="M95,4.003c6.063,0,10.997,4.933,10.997,10.997c0,6.063-4.934,10.996-10.997,10.996
				S84.003,21.063,84.003,15C84.003,8.937,88.937,4.003,95,4.003 M95,2.003c-7.178,0-12.997,5.819-12.997,12.997
				c0,7.177,5.819,12.996,12.997,12.996S107.997,22.178,107.997,15C107.997,7.823,102.178,2.003,95,2.003L95,2.003z"/>
		</g>
	</g>
</g>
<g id="seen">
	<g>
		<circle fill="#FFFFFF" cx="15.205" cy="-22" r="5.727"/>
		<g>
			<path fill="#FFFFFF" d="M16.603-33.645L16.603-33.645c3.295,0,6.521,2.508,8.63,6.709c1.438,2.864,1.158,3.939,0.735,5.567
				c-0.311,1.193-0.697,2.679-0.494,4.83c0.114,1.203-0.281,2.311-1.174,3.291c-1.624,1.784-4.626,2.893-7.836,2.893
				c-2.16,0-4.241-0.502-6.019-1.45C7.204-13.533,3-19.577,4.05-24.747c0.656-3.228,2.908-4.342,5.515-5.631
				c1.218-0.603,2.478-1.225,3.582-2.089C14.131-33.238,15.327-33.645,16.603-33.645 M16.603-35.645
				c-1.711,0-3.335,0.543-4.688,1.603c-3.205,2.509-8.619,2.965-9.824,8.896C0.886-19.214,5.334-12.264,9.503-10.04
				c2.175,1.16,4.605,1.686,6.96,1.686c5.982,0,11.471-3.392,11.001-8.371c-0.444-4.711,2.429-5.383-0.444-11.107
				C24.36-33.133,20.28-35.645,16.603-35.645L16.603-35.645z"/>
		</g>
	</g>
	<path fill="#FFFFFF" d="M26.58,9.633C22.859,2.22,16.23,0.521,12.162,3.707c-3.059,2.395-8.226,2.83-9.376,8.49
		c-1.15,5.662,3.096,12.295,7.075,14.418c7.35,3.92,17.768,0.242,17.143-6.381C26.58,15.736,29.322,15.096,26.58,9.633z
		 M15.205,20.928c-3.163,0-5.727-2.564-5.727-5.729s2.564-5.727,5.727-5.727s5.727,2.563,5.727,5.727S18.368,20.928,15.205,20.928z"
		/>
</g>
<g id="watching">
	<g>
		<g>
			<path fill="#FFFFFF" d="M64.213,5.604c0.896,0,1.625,0.889,1.625,1.982v14.828c0,1.093-0.729,1.982-1.625,1.982H45.787
				c-0.896,0-1.625-0.89-1.625-1.982V7.586c0-1.093,0.729-1.982,1.625-1.982H64.213 M64.213,3.604H45.787
				c-2.002,0-3.625,1.783-3.625,3.982v14.828c0,2.199,1.623,3.982,3.625,3.982h18.426c2.002,0,3.625-1.783,3.625-3.982V7.586
				C67.838,5.387,66.215,3.604,64.213,3.604L64.213,3.604z"/>
		</g>
	</g>
	<polygon fill="#FFFFFF" points="61.319,15 56,18.072 50.68,21.143 50.68,15 50.68,8.857 56,11.929 	"/>
	<path fill="#FFFFFF" d="M65.375,42H46.949C44.947,42,43,43.387,43,45.586v14.828C43,62.613,44.947,64,46.949,64h18.426
		C67.377,64,69,62.613,69,60.414V45.586C69,43.387,67.377,42,65.375,42z M57.241,56.072L52,59.143V53v-6.143l5.241,3.071L62.561,53
		L57.241,56.072z"/>
</g>
<g id="watchlist_1_">
	<g>
		<g>
			<path fill="#FFFFFF" d="M-25,2.845c1.761,0,7.538,5.244,8.598,13.338c0.417,3.289-0.398,6.283-2.294,8.434
				c-1.645,1.867-3.942,2.938-6.303,2.938s-4.659-1.07-6.303-2.938c-1.896-2.15-2.711-5.145-2.296-8.424
				C-32.538,8.089-26.761,2.845-25,2.845 M-25,0.845c-3.037,0-9.43,6.287-10.582,15.088C-36.63,24.211-30.867,29.555-25,29.555
				s11.63-5.344,10.582-13.622C-15.57,7.132-21.961,0.845-25,0.845L-25,0.845z"/>
		</g>
		<polygon fill="#FFFFFF" points="-18.688,9.2 -19.362,13.513 -21.589,9.801 -22.388,8.601 -22.688,10 -23.46,13.685 -26.188,11.7 
			-26.389,11.5 -26.589,11.7 -30.072,15.961 -31.188,12.801 -30.188,16.201 -30.188,16.4 -29.987,16.301 -26.409,12.346 
			-23.388,14.801 -22.888,15.2 -22.688,14.5 -21.964,11.733 -19.589,16.102 -18.688,18 -18.188,15.9 -16.788,9.5 		"/>
	</g>
	<path fill="#FFFFFF" d="M-14.9,53.7c-0.174-1.326-0.482-2.583-0.873-3.775L-16.6,53.7l-0.5,2.1l-0.9-1.898l-2.375-4.368L-21.1,52.3
		l-0.199,0.7l-0.5-0.399l-3.021-2.455l-3.778,3.955L-29,54.2v-0.199l-0.8-3.4l1.216,3.16l3.534-4.261l0.225-0.2l0.212,0.2
		l2.735,1.984l0.775-3.685L-20.8,46.4l0.799,1.2l2.227,3.712L-17.1,47l0.139,0.021C-19.312,42.303-22.951,39.3-25,39.3
		c-2.898,0-9,6-10.1,14.4c-1,7.9,4.5,13,10.1,13S-13.9,61.601-14.9,53.7z"/>
</g>
</svg>
