<?xml version="1.0" encoding="utf-8"?>
<!-- Generator: Adobe Illustrator 15.1.0, SVG Export Plug-In . SVG Version: 6.00 Build 0)  -->
<!DOCTYPE svg PUBLIC "-//W3C//DTD SVG 1.1//EN" "http://www.w3.org/Graphics/SVG/1.1/DTD/svg11.dtd">
<svg version="1.1" id="Layer_1" xmlns="http://www.w3.org/2000/svg" xmlns:xlink="http://www.w3.org/1999/xlink" x="0px" y="0px"
	 width="30px" height="30px" viewBox="0 0 30 30" enable-background="new 0 0 30 30" xml:space="preserve">
<path fill="none" stroke="#FFFFFF" stroke-width="2" stroke-miterlimit="10" d="M-4.539,2.728h-5.019V0.969
	c0-1.217-0.987-2.205-2.203-2.205h-8.942c-1.218,0-2.205,0.987-2.205,2.205v1.759h-5.019c-0.945,0-1.713,0.767-1.713,1.714
	c0,0.945,0.767,1.712,1.713,1.712h1.788l1.787,16.236c0,1.482,1.203,2.682,2.682,2.682h10.878c1.478,0,2.679-1.199,2.679-2.682
	l1.786-16.236h1.79c0.946,0,1.714-0.767,1.714-1.712C-2.824,3.495-3.592,2.728-4.539,2.728z M-18.303,20.584
	c0,0.586-0.473,1.061-1.059,1.061c-0.584,0-1.058-0.475-1.058-1.061V10.476c0-0.585,0.474-1.059,1.058-1.059
	c0.585,0,1.059,0.474,1.059,1.059V20.584z M-11.895,20.584c0,0.586-0.475,1.061-1.06,1.061s-1.059-0.475-1.059-1.061V10.476
	c0-0.585,0.474-1.059,1.059-1.059s1.06,0.474,1.06,1.059V20.584z"/>
<g id="Layer_2">
</g>
<line fill="none" stroke="#FFFFFF" stroke-width="2" stroke-miterlimit="10" x1="-6.327" y1="6.154" x2="-26.773" y2="6.154"/>
<g>
	<g>
		<path fill="#FFFFFF" d="M59.17,0.247c0.039,0,0.08,0,0.123,0l-2.104,15.279l-0.019,0.136v0.137c0,0.137-0.11,0.247-0.247,0.247
			H45.409c-0.136,0-0.247-0.11-0.247-0.247v-0.137l-0.018-0.137L43.039,0.247c0.043,0,0.084,0,0.123,0H59.17 M59.17-1.753H43.162
			c-1.24,0-2.246,0.006-2.246,1.247l2.246,16.305c0,1.24,1.006,2.247,2.247,2.247h11.514c1.24,0,2.247-1.007,2.247-2.247
			l2.246-16.305C61.416-1.748,60.41-1.753,59.17-1.753L59.17-1.753z"/>
	</g>
	
		<line fill="none" stroke="#FFFFFF" stroke-width="3" stroke-linecap="round" stroke-linejoin="round" stroke-miterlimit="10" x1="61.9" y1="-0.604" x2="40.432" y2="-0.604"/>
	
		<line fill="none" stroke="#FFFFFF" stroke-width="3" stroke-linecap="round" stroke-linejoin="round" stroke-miterlimit="10" x1="46.416" y1="-2.604" x2="55.916" y2="-2.604"/>
	<g>
		
			<line fill="none" stroke="#FFFFFF" stroke-width="2" stroke-linecap="round" stroke-linejoin="round" stroke-miterlimit="10" x1="53.854" y1="3.958" x2="53.854" y2="13.083"/>
		
			<line fill="none" stroke="#FFFFFF" stroke-width="2" stroke-linecap="round" stroke-linejoin="round" stroke-miterlimit="10" x1="48.479" y1="3.958" x2="48.479" y2="13.083"/>
	</g>
</g>
<g>
	<g>
		<path fill="#FFFFFF" d="M21.352,7.226c1.465,0,1.465,0.397,1.465,0.818v16.577c0,1.003-0.657,1.818-1.465,1.818H8.648
			c-0.808,0-1.465-0.815-1.465-1.818V8.044c0-0.421,0-0.818,1.465-0.818H21.352 M21.352,5.226H8.648
			c-1.914,0-3.465,0.71-3.465,2.818v16.577c0,2.11,1.551,3.818,3.465,3.818h12.704c1.914,0,3.465-1.708,3.465-3.818V8.044
			C24.816,5.936,23.266,5.226,21.352,5.226L21.352,5.226z"/>
	</g>
	
		<line fill="none" stroke="#FFFFFF" stroke-width="3.5" stroke-linecap="round" stroke-linejoin="round" stroke-miterlimit="10" x1="3.656" y1="6.414" x2="26.344" y2="6.414"/>
	
		<line fill="none" stroke="#FFFFFF" stroke-width="3" stroke-linecap="round" stroke-linejoin="round" stroke-miterlimit="10" x1="10.682" y1="3.561" x2="19.318" y2="3.561"/>
	<g>
		
			<line fill="none" stroke="#FFFFFF" stroke-width="2" stroke-linecap="round" stroke-linejoin="round" stroke-miterlimit="10" x1="11.575" y1="12.357" x2="11.575" y2="22.187"/>
		
			<line fill="none" stroke="#FFFFFF" stroke-width="2" stroke-linecap="round" stroke-linejoin="round" stroke-miterlimit="10" x1="18.425" y1="12.357" x2="18.425" y2="22.187"/>
	</g>
</g>
</svg>
