<?xml version="1.0" encoding="utf-8"?>
<!-- Generator: Adobe Illustrator 15.1.0, SVG Export Plug-In . SVG Version: 6.00 Build 0)  -->
<!DOCTYPE svg PUBLIC "-//W3C//DTD SVG 1.1//EN" "http://www.w3.org/Graphics/SVG/1.1/DTD/svg11.dtd">
<svg version="1.1" id="Layer_1" xmlns="http://www.w3.org/2000/svg" xmlns:xlink="http://www.w3.org/1999/xlink" x="0px" y="0px"
	 width="30px" height="30px" viewBox="0 0 30 30" enable-background="new 0 0 30 30" xml:space="preserve">
<path fill="#FFFFFF" d="M25.319,2.613H4.682c-1.426,0-2.579,1.271-2.579,2.839V20.7c0,1.568,1.153,2.839,2.579,2.839h18.638
	c1.425,0,4.578,5.116,4.578,3.55v-5.206V5.452C27.897,3.884,26.744,2.613,25.319,2.613z M22.217,17.145H7.785c-0.553,0-1-0.447-1-1
	s0.447-1,1-1h14.432c0.553,0,1,0.447,1,1S22.77,17.145,22.217,17.145z M22.217,10.75H7.785c-0.553,0-1-0.448-1-1s0.447-1,1-1h14.432
	c0.553,0,1,0.448,1,1S22.77,10.75,22.217,10.75z"/>
</svg>
