<?xml version="1.0" encoding="utf-8"?>
<!-- Generator: Adobe Illustrator 15.1.0, SVG Export Plug-In . SVG Version: 6.00 Build 0)  -->
<!DOCTYPE svg PUBLIC "-//W3C//DTD SVG 1.1//EN" "http://www.w3.org/Graphics/SVG/1.1/DTD/svg11.dtd">
<svg version="1.1" xmlns="http://www.w3.org/2000/svg" xmlns:xlink="http://www.w3.org/1999/xlink" x="0px" y="0px" width="30px"
	 height="30px" viewBox="0 0 30 30" enable-background="new 0 0 30 30" xml:space="preserve">
<g id="background" display="none">
	<linearGradient id="SVGID_1_" gradientUnits="userSpaceOnUse" x1="-120" y1="15" x2="70" y2="15">
		<stop  offset="0" style="stop-color:#25ACD1"/>
		<stop  offset="1" style="stop-color:#466FB6"/>
	</linearGradient>
	<rect x="-120" display="inline" fill="url(#SVGID_1_)" width="190" height="30"/>
	<linearGradient id="SVGID_2_" gradientUnits="userSpaceOnUse" x1="-120" y1="53" x2="70" y2="53">
		<stop  offset="0" style="stop-color:#25ACD1"/>
		<stop  offset="1" style="stop-color:#466FB6"/>
	</linearGradient>
	<rect x="-120" y="38" display="inline" fill="url(#SVGID_2_)" width="190" height="30"/>
</g>
<g id="tag">
	<g>
		<g>
			<path fill="#FFFFFF" d="M43.823,3.824c4.763,0.425,9.666,1.03,10.903,1.462L66.19,16.749c0.146,0.146,0.177,0.312,0.177,0.425
				c0,0.112-0.031,0.276-0.18,0.425l-8.591,8.591c-0.145,0.146-0.31,0.176-0.423,0.176s-0.278-0.03-0.426-0.179L45.287,14.725
				C44.854,13.488,44.249,8.585,43.823,3.824 M41.634,1.634c0,0,1.028,13.297,2.046,14.313l11.654,11.654
				c0.508,0.51,1.174,0.765,1.84,0.765s1.332-0.255,1.84-0.765l8.588-8.588c1.021-1.015,1.021-2.664,0-3.681L55.947,3.679
				C54.93,2.662,41.634,1.634,41.634,1.634L41.634,1.634z"/>
		</g>
		<circle fill="#FFFFFF" cx="47.613" cy="7.612" r="1.75"/>
	</g>
	<g>
		<path fill="#FFFFFF" d="M67.602,53.737L55.947,42.084c-1.018-1.017-14.313-2.045-14.313-2.045s1.028,13.297,2.046,14.313
			l11.654,11.654c1.016,1.02,2.664,1.02,3.68,0l8.588-8.588C68.622,56.403,68.622,54.754,67.602,53.737z M47.613,47.768
			c-0.967,0-1.75-0.783-1.75-1.75s0.783-1.75,1.75-1.75s1.75,0.783,1.75,1.75S48.58,47.768,47.613,47.768z"/>
	</g>
</g>
<g id="friends">
	<g>
		<path fill="#FFFFFF" d="M15.036,40.004c-7.178,0-12.997,5.819-12.997,12.997c0,7.177,5.819,12.995,12.997,12.995
			s12.997-5.818,12.997-12.995C28.033,45.823,22.214,40.004,15.036,40.004z M10.39,48.342c1.473,0,2.666,1.193,2.666,2.666
			s-1.193,2.667-2.666,2.667s-2.667-1.194-2.667-2.667S8.917,48.342,10.39,48.342z M15.071,60.479c-2.861,0-5.527-1.738-7.349-4.84
			h14.698C20.6,58.74,17.933,60.479,15.071,60.479z M19.753,53.675c-1.472,0-2.665-1.194-2.665-2.667s1.193-2.666,2.665-2.666
			c1.473,0,2.668,1.193,2.668,2.666S21.226,53.675,19.753,53.675z"/>
	</g>
	<g>
		<circle fill="#FFFFFF" cx="10.354" cy="13.008" r="2.667"/>
		<circle fill="#FFFFFF" cx="19.717" cy="13.008" r="2.667"/>
		<path fill="#FFFFFF" d="M7.687,17.639c1.821,3.102,4.487,4.84,7.349,4.84s5.528-1.738,7.35-4.84H7.687L7.687,17.639z"/>
		<g>
			<path fill="#FFFFFF" d="M15,4.004c6.063,0,10.997,4.933,10.997,10.997c0,6.063-4.934,10.995-10.997,10.995
				S4.003,21.063,4.003,15.001C4.003,8.937,8.937,4.004,15,4.004 M15,2.004c-7.178,0-12.997,5.819-12.997,12.997
				c0,7.177,5.819,12.995,12.997,12.995s12.997-5.818,12.997-12.995C27.997,7.823,22.178,2.004,15,2.004L15,2.004z"/>
		</g>
	</g>
</g>
<g id="seen">
	<g>
		<circle fill="#FFFFFF" cx="-64.693" cy="15.674" r="5.727"/>
		<g>
			<path fill="#FFFFFF" d="M-63.295,4.029L-63.295,4.029c3.295,0,6.521,2.508,8.63,6.709c1.438,2.864,1.158,3.939,0.735,5.567
				c-0.311,1.193-0.697,2.679-0.494,4.83c0.114,1.203-0.281,2.311-1.174,3.291c-1.624,1.784-4.626,2.893-7.836,2.893
				c-2.16,0-4.241-0.502-6.019-1.45c-3.241-1.729-7.444-7.772-6.395-12.942c0.656-3.228,2.908-4.342,5.515-5.631
				c1.218-0.603,2.478-1.225,3.582-2.089C-65.767,4.436-64.571,4.029-63.295,4.029 M-63.295,2.029c-1.711,0-3.335,0.543-4.688,1.603
				c-3.205,2.509-8.619,2.965-9.824,8.896c-1.205,5.932,3.244,12.882,7.413,15.105c2.175,1.16,4.605,1.686,6.96,1.686
				c5.982,0,11.471-3.392,11.001-8.371c-0.444-4.712,2.429-5.383-0.444-11.107C-55.538,4.541-59.618,2.029-63.295,2.029
				L-63.295,2.029z"/>
		</g>
	</g>
	<path fill="#FFFFFF" d="M-53.42,47.838c-3.721-7.413-10.35-9.111-14.418-5.926c-3.059,2.395-8.226,2.83-9.376,8.49
		c-1.15,5.662,3.096,12.295,7.075,14.418c7.35,3.92,17.768,0.242,17.143-6.381C-53.42,53.941-50.678,53.301-53.42,47.838z
		 M-64.795,59.133c-3.163,0-5.727-2.564-5.727-5.729s2.564-5.727,5.727-5.727s5.727,2.563,5.727,5.727S-61.632,59.133-64.795,59.133
		z"/>
</g>
<g id="watching">
	<g>
		<g>
			<g>
				<path fill="#FFFFFF" d="M-14.787,6.277c0.896,0,1.625,0.889,1.625,1.982v14.828c0,1.093-0.729,1.982-1.625,1.982h-18.426
					c-0.896,0-1.625-0.89-1.625-1.982V8.26c0-1.093,0.729-1.982,1.625-1.982H-14.787 M-14.787,4.277h-18.426
					c-2.002,0-3.625,1.783-3.625,3.982v14.828c0,2.199,1.623,3.982,3.625,3.982h18.426c2.002,0,3.625-1.783,3.625-3.982V8.26
					C-11.162,6.061-12.785,4.277-14.787,4.277L-14.787,4.277z"/>
			</g>
		</g>
		<polygon fill="#FFFFFF" points="-17.681,15.674 -23,18.746 -28.32,21.816 -28.32,15.674 -28.32,9.531 -23,12.603 		"/>
	</g>
	<path fill="#FFFFFF" d="M-14.625,39h-18.426C-35.053,39-37,40.886-37,43.085v14.828C-37,60.112-35.053,61-33.051,61h18.426
		C-12.623,61-11,60.112-11,57.913V43.085C-11,40.886-12.623,39-14.625,39z M-22.759,53.571L-28,56.642v-6.143v-6.143l5.241,3.071
		l5.319,3.071L-22.759,53.571z"/>
</g>
<g id="watchlist_1_">
	<g>
		<g>
			<path fill="#FFFFFF" d="M-105,2.845c1.761,0,7.538,5.244,8.598,13.338c0.417,3.289-0.398,6.283-2.294,8.434
				c-1.645,1.867-3.942,2.938-6.303,2.938s-4.659-1.07-6.303-2.938c-1.896-2.15-2.711-5.145-2.296-8.424
				C-112.538,8.089-106.761,2.845-105,2.845 M-105,0.845c-3.037,0-9.43,6.287-10.582,15.088
				c-1.048,8.278,4.715,13.622,10.582,13.622s11.63-5.344,10.582-13.622C-95.57,7.132-101.961,0.845-105,0.845L-105,0.845z"/>
		</g>
		<polygon fill="#FFFFFF" points="-98.688,9.2 -99.362,13.513 -101.589,9.801 -102.388,8.601 -102.688,10 -103.46,13.685 
			-106.188,11.7 -106.389,11.5 -106.589,11.7 -110.072,15.961 -111.188,12.801 -110.188,16.201 -110.188,16.4 -109.987,16.301 
			-106.409,12.346 -103.388,14.801 -102.888,15.2 -102.688,14.5 -101.964,11.733 -99.589,16.102 -98.688,18 -98.188,15.9 
			-96.788,9.5 		"/>
	</g>
	<path fill="#FFFFFF" d="M-94.9,53.7c-0.174-1.326-0.482-2.583-0.873-3.775L-96.6,53.7l-0.5,2.1l-0.9-1.898l-2.375-4.368
		L-101.1,52.3l-0.199,0.7l-0.5-0.399l-3.021-2.455l-3.778,3.955L-109,54.2v-0.199l-0.8-3.4l1.216,3.16l3.534-4.261l0.225-0.2
		l0.212,0.2l2.735,1.984l0.775-3.685l0.302-1.399l0.799,1.2l2.227,3.712L-97.1,47l0.139,0.021c-2.351-4.719-5.99-7.722-8.039-7.722
		c-2.898,0-9,6-10.1,14.4c-1,7.9,4.5,13,10.1,13S-93.9,61.601-94.9,53.7z"/>
</g>
</svg>
